<svg version="1.1" id="Calque_1" xmlns="http://www.w3.org/2000/svg" x="0" y="0" viewBox="-94 186 422 422" style="enable-background:new -94 186 422 422" xml:space="preserve"><style>.st1{fill:#6978a8}</style><path style="fill:#d4e1f4" d="M-38.3 452.7h328.6v-18H-56.3v158.9h18z"/><path class="st1" d="M-10.5 568.6c3.5 0 6.3-2.8 6.3-6.3v-96.4c0-3.5-2.8-6.3-6.3-6.3s-6.3 2.8-6.3 6.3v96.4c0 3.5 2.9 6.3 6.3 6.3zM53.3 568.6c3.5 0 6.3-2.8 6.3-6.3v-96.4c0-3.5-2.8-6.3-6.3-6.3s-6.3 2.8-6.3 6.3v96.4c0 3.5 2.8 6.3 6.3 6.3zM117 568.6c3.5 0 6.3-2.8 6.3-6.3v-96.4c0-3.5-2.8-6.3-6.3-6.3s-6.3 2.8-6.3 6.3v96.4c0 3.5 2.8 6.3 6.3 6.3zM180.7 568.6c3.5 0 6.3-2.8 6.3-6.3v-96.4c0-3.5-2.8-6.3-6.3-6.3s-6.3 2.8-6.3 6.3v96.4c.1 3.5 2.9 6.3 6.3 6.3zM244.5 568.6c3.5 0 6.3-2.8 6.3-6.3v-96.4c0-3.5-2.8-6.3-6.3-6.3s-6.3 2.8-6.3 6.3v96.4c0 3.5 2.8 6.3 6.3 6.3z"/><path class="st1" d="M-68.7 427.3v.3c0 .1 0 .2-.1.4V599.8c0 3.5 2.8 6.4 6.3 6.5h359.1c3.5-.1 6.3-3 6.3-6.5V427.9c0-.2 0-.3-.1-.4-.1-.6-.3-1.2-.6-1.8v-.1c-.1-.1-.1-.2-.2-.3 0-.1-.1-.1-.1-.2l-.2-.2c-.1-.1-.1-.2-.2-.3l-.1-.1-.3-.3c-.3-.3-.6-.5-1-.8-.2-.1-.3-.2-.5-.3l-.6-.3h-.1l-173.7-71.6v-16.7c0-3.5-2.8-6.3-6.3-6.3s-6.3 2.8-6.3 6.3v16.6L-65 422.8c-.1.1-.2.1-.4.2-.1 0-.1.1-.1.1-.1.1-.2.1-.3.2-.1 0-.1.1-.2.1s-.1.1-.2.1c-1.2.9-2.1 2.1-2.4 3.6-.1.1-.1.1-.1.2zM119 362.1l145.8 60.1H-30.1L119 362.1zm171.3 231.5H-56.3V434.7h346.5v158.9z"/><path d="M117 327.3c-9.8 0-17.8-8-17.8-17.8 0-3.5-2.8-6.3-6.3-6.3s-6.3 2.8-6.3 6.3c0 16.8 13.6 30.4 30.4 30.4 16.8 0 30.4-13.6 30.4-30.4 0-14.4-10.1-26.8-24.1-29.7v-30.9h5.8c2.9 0 5.4-2 6.1-4.8l12-48.2c.5-1.9 0-3.9-1.1-5.5-1.2-1.6-3-2.5-5-2.5H92.9c-3.5.1-6.4 3-6.3 6.6 0 .5.1.9.2 1.4l12 48.3c.7 2.8 3.2 4.8 6.1 4.8h5.8v36.5c0 3.5 2.8 6.3 6.3 6.3 9.8-.1 17.9 7.9 17.9 17.7.1 9.8-7.9 17.9-17.7 17.9 0-.1-.1-.1-.2-.1zm-16.1-126.9H133l-8.9 35.9h-14.3l-8.9-35.9z" style="fill:#0023ff"/></svg>