<svg version="1.1" id="Calque_1" xmlns="http://www.w3.org/2000/svg" x="0" y="0" viewBox="-94 186 422 422" style="enable-background:new -94 186 422 422" xml:space="preserve"><style>.st0{fill:#d4e1f4}.st1{fill:#6978a8}.st2{fill:#0023ff}</style><path class="st0" d="M-20.4 498.9v-95.2l-39.8-16.9v141.9c0 7.1 5.8 12.9 12.9 12.9h18.5c2.2-12.7 10.1-23.7 21.4-29.8h-.2c-7 0-12.8-5.8-12.8-12.9zM32.2 511.8c11.4 6.1 19.3 17.1 21.4 29.8h95.5v-29.8H32.2zM-7.3 511.8h39.5c-12.4-6.6-27.2-6.6-39.5 0z"/><path class="st1" d="M-67.1 364.2c-3.8 0-7 3.1-7 7v157.5c0 14.8 12 26.8 26.9 26.9h24.9c3.8 0 7-3.1 7-7 0-3.8-3.1-7-7-7h-24.9c-7.1 0-12.9-5.8-12.9-12.9V371.2c-.1-3.8-3.2-7-7-7zM148.1 439.6v102H47.2c-3.8 0-7 3.1-7 7 0 3.8 3.1 7 7 7h159.1c3.8 0 7-3.1 7-7 0-3.8-3.1-7-7-7H162v-95h151.7v82.1c0 7.1-5.8 12.9-12.9 12.9H276c-3.8 0-7 3.1-7 7 0 3.8 3.1 7 7 7h24.9c14.8 0 26.8-12 26.9-26.9v-90c0-.1 0-.2-.1-.4 0-.1 0-.2-.1-.3 0-.1-.1-.2-.1-.3 0-.1-.1-.2-.1-.3 0-.1-.1-.2-.1-.3 0-.1-.1-.2-.1-.3 0-.1-.1-.2-.1-.3-.1-.1-.1-.2-.2-.3-.1-.1-.1-.2-.2-.3-.1-.1-.1-.2-.2-.3-.1-.1-.1-.2-.2-.3-.1-.1-.2-.2-.2-.3l-.1-.1-51.2-55.8c-5.1-5.5-12.3-8.7-19.8-8.7h-92.8v-72.2c0-14.8-12-26.8-26.9-26.9H62.1c-3.8 0-7 3.1-7 7 0 3.8 3.1 7 7 7h73.1c7.1 0 12.9 5.8 12.9 12.9v141.4zm106.7-55.3c3.6 0 7.1 1.5 9.5 4.2l40.5 44.2H162.1v-48.3h92.7z"/><path class="st2" d="M241.1 590.4c-23.1 0-41.8-18.7-41.8-41.8 0-23.1 18.7-41.8 41.8-41.8s41.8 18.7 41.8 41.8c0 23-18.7 41.7-41.8 41.8zm0-69.7c-15.4 0-27.8 12.5-27.8 27.8 0 15.4 12.5 27.8 27.8 27.8S269 564 269 548.6c0-15.4-12.5-27.8-27.9-27.9zM-7.5 404.6c-47.8 0-86.5-38.7-86.5-86.5s38.7-86.5 86.5-86.5S79 270.3 79 318.1s-38.7 86.5-86.5 86.5zm0-159.1c-40.1 0-72.6 32.5-72.6 72.6s32.5 72.6 72.6 72.6 72.6-32.5 72.6-72.6c0-40.1-32.5-72.5-72.6-72.6z"/><path class="st2" d="M34.2 325.2H-7.2c-3.8 0-7-3.1-7-7v-41.4c0-3.8 3.1-7 7-7s7 3.1 7 7v34.4h34.4c3.8 0 7 3.1 7 7-.1 3.9-3.2 7-7 7zM12.4 590.4c-23.1 0-41.8-18.7-41.8-41.8 0-23.1 18.7-41.8 41.8-41.8s41.8 18.7 41.8 41.8c0 23-18.7 41.7-41.8 41.8zm0-69.7c-15.4 0-27.8 12.5-27.8 27.8 0 15.4 12.5 27.8 27.8 27.8s27.8-12.5 27.8-27.8-12.4-27.7-27.8-27.8z"/></svg>