<svg version="1.1" id="Calque_1" xmlns="http://www.w3.org/2000/svg" x="0" y="0" viewBox="-94 186 422 422" style="enable-background:new -94 186 422 422" xml:space="preserve"><style>.st1{fill:#1ae5be}.st2{fill:#0023ff}.st3{fill:#6978a8}</style><path d="M269.8 339.5c-1.5-4.6-5.9-7.7-10.7-7.6H-65.6c-6.2 0-11.1 4.6-11.1 10.8v6.5h318.5c4.8-.1 9.2 3 10.7 7.6l41.2 127.3h2.5c8.3-.1 15.2-6.6 15.6-14.9l-42-129.7z" style="fill:#d4e1f4"/><path class="st1" d="M238.1 413.6v-36.3c0-6.2 4.9-10.8 11.1-10.8H283v-12.1h-33.8c-12.7-.2-23 9.9-23.2 22.6V413.6c0 12.9 10.4 23.8 23.2 23.8h57.2v-12.1h-57.2c-6.2 0-11.1-5.5-11.1-11.7zM85.9 386.4H98v102H85.9zM20.2 395.1c0-8.1-6.6-14.7-14.7-14.7h-53.6c-8.1 0-14.7 6.6-14.7 14.7v33.7c0 8.1 6.6 14.7 14.7 14.7H5.5c8.1 0 14.7-6.6 14.7-14.7v-33.7zM8.1 428.8c0 1.4-1.2 2.6-2.6 2.6h-53.6c-1.4 0-2.6-1.2-2.6-2.6v-33.7c0-1.4 1.2-2.6 2.6-2.6H5.5c1.4 0 2.6 1.2 2.6 2.6v33.7zM202.6 395.1c0-8.1-6.6-14.7-14.7-14.7h-19c-8.1 0-14.7 6.6-14.7 14.7v33.7c0 8.1 6.6 14.7 14.7 14.7h19c8.1 0 14.7-6.6 14.7-14.7v-33.7zm-12.1 33.7c0 1.4-1.2 2.6-2.6 2.6h-19c-1.4 0-2.6-1.2-2.6-2.6v-33.7c0-1.4 1.2-2.6 2.6-2.6h19c1.4 0 2.6 1.2 2.6 2.6v33.7zM120.8 320.1l-39.3-21.4 60.9-31.9c3-1.6 4.1-5.2 2.6-8.2s-5.2-4.1-8.2-2.6l-70.9 37.2c-3 1.6-4.1 5.2-2.5 8.2.6 1.1 1.4 1.9 2.5 2.5l49.3 26.8c2.9 1.6 6.6.5 8.2-2.4 1.4-2.9.3-6.6-2.6-8.2zM21.9 483.7c-3.3 0-6.1 2.7-6.1 6.1C15.8 503.2 5 514-8.4 514s-24.2-10.8-24.2-24.2c0-3.3-2.7-6.1-6.1-6.1s-6.1 2.7-6.1 6.1c0 20.1 16.3 36.3 36.3 36.3s36.3-16.3 36.3-36.3c.1-3.4-2.6-6.1-5.9-6.1z"/><path class="st1" d="M105.5 483.7c-3.3 0-6.1 2.7-6.1 6.1 0 13.4-10.8 24.2-24.2 24.2S51 503.1 51 489.7c0-3.3-2.7-6.1-6.1-6.1-3.3 0-6.1 2.7-6.1 6.1 0 20.1 16.3 36.3 36.3 36.3s36.3-16.3 36.3-36.3c.1-3.3-2.6-6-5.9-6zM189.1 483.7c-3.3 0-6.1 2.7-6.1 6.1 0 13.4-10.8 24.2-24.2 24.2s-24.2-10.8-24.2-24.2c0-3.3-2.7-6.1-6.1-6.1s-6.1 2.7-6.1 6.1c0 20.1 16.3 36.3 36.3 36.3s36.3-16.3 36.3-36.3c.1-3.4-2.6-6.1-5.9-6.1zM272.6 483.7c-3.3 0-6.1 2.7-6.1 6.1 0 13.4-10.8 24.2-24.2 24.2s-24.2-10.8-24.2-24.2c0-3.3-2.7-6.1-6.1-6.1-3.3 0-6.1 2.7-6.1 6.1 0 20.1 16.3 36.3 36.3 36.3s36.3-16.3 36.3-36.3c.2-3.4-2.5-6.1-5.9-6.1z"/><path class="st2" d="M238.1 413.6v-36.3c0-6.2 4.9-10.8 11.1-10.8H283v-12.1h-33.8c-12.7-.2-23 9.9-23.2 22.6V413.6c0 12.9 10.4 23.8 23.2 23.8h57.2v-12.1h-57.2c-6.2 0-11.1-5.5-11.1-11.7zM85.9 386.4H98v102H85.9zM20.2 395.1c0-8.1-6.6-14.7-14.7-14.7h-53.6c-8.1 0-14.7 6.6-14.7 14.7v33.7c0 8.1 6.6 14.7 14.7 14.7H5.5c8.1 0 14.7-6.6 14.7-14.7v-33.7zM8.1 428.8c0 1.4-1.2 2.6-2.6 2.6h-53.6c-1.4 0-2.6-1.2-2.6-2.6v-33.7c0-1.4 1.2-2.6 2.6-2.6H5.5c1.4 0 2.6 1.2 2.6 2.6v33.7zM202.6 395.1c0-8.1-6.6-14.7-14.7-14.7h-19c-8.1 0-14.7 6.6-14.7 14.7v33.7c0 8.1 6.6 14.7 14.7 14.7h19c8.1 0 14.7-6.6 14.7-14.7v-33.7zm-12.1 33.7c0 1.4-1.2 2.6-2.6 2.6h-19c-1.4 0-2.6-1.2-2.6-2.6v-33.7c0-1.4 1.2-2.6 2.6-2.6h19c1.4 0 2.6 1.2 2.6 2.6v33.7zM120.8 320.1l-39.3-21.4 60.9-31.9c3-1.6 4.1-5.2 2.6-8.2s-5.2-4.1-8.2-2.6l-70.9 37.2c-3 1.6-4.1 5.2-2.5 8.2.6 1.1 1.4 1.9 2.5 2.5l49.3 26.8c2.9 1.6 6.6.5 8.2-2.4 1.4-2.9.3-6.6-2.6-8.2zM21.9 483.7c-3.3 0-6.1 2.7-6.1 6.1C15.8 503.2 5 514-8.4 514s-24.2-10.8-24.2-24.2c0-3.3-2.7-6.1-6.1-6.1s-6.1 2.7-6.1 6.1c0 20.1 16.3 36.3 36.3 36.3s36.3-16.3 36.3-36.3c.1-3.4-2.6-6.1-5.9-6.1z"/><path class="st2" d="M105.5 483.7c-3.3 0-6.1 2.7-6.1 6.1 0 13.4-10.8 24.2-24.2 24.2S51 503.1 51 489.7c0-3.3-2.7-6.1-6.1-6.1-3.3 0-6.1 2.7-6.1 6.1 0 20.1 16.3 36.3 36.3 36.3s36.3-16.3 36.3-36.3c.1-3.3-2.6-6-5.9-6zM189.1 483.7c-3.3 0-6.1 2.7-6.1 6.1 0 13.4-10.8 24.2-24.2 24.2s-24.2-10.8-24.2-24.2c0-3.3-2.7-6.1-6.1-6.1s-6.1 2.7-6.1 6.1c0 20.1 16.3 36.3 36.3 36.3s36.3-16.3 36.3-36.3c.1-3.4-2.6-6.1-5.9-6.1zM272.6 483.7c-3.3 0-6.1 2.7-6.1 6.1 0 13.4-10.8 24.2-24.2 24.2s-24.2-10.8-24.2-24.2c0-3.3-2.7-6.1-6.1-6.1-3.3 0-6.1 2.7-6.1 6.1 0 20.1 16.3 36.3 36.3 36.3s36.3-16.3 36.3-36.3c.2-3.4-2.5-6.1-5.9-6.1z"/><path class="st3" d="M-65.6 496.2h361.7c15.4-.1 27.7-12.6 27.7-28 0-.7-.1-1.3-.3-2l-42.3-130.5c-3.1-9.6-12.1-16.1-22.2-16H-65.6c-12.7-.2-23 9.9-23.2 22.6v130c0 13 10.4 23.9 23.2 23.9zm120.3-12.1v-91.7h74.4v91.7H54.7zM-76.7 342.7c0-6.2 4.9-10.8 11.1-10.8H259c4.8-.1 9.2 3 10.7 7.6l42 129.7c-.5 8.3-7.3 14.8-15.6 14.9H141.2V386c0-3.3-2.7-5.6-6.1-5.6H48.7c-3.3 0-6.1 2.3-6.1 5.6v98.1H-65.6c-6.2 0-11.1-5.5-11.1-11.7V342.7zM321.9 526.5H-87.9c-3.3 0-6.1 2.7-6.1 6.1s2.7 6.1 6.1 6.1H322c3.3 0 6.1-2.7 6.1-6.1s-2.8-6.1-6.2-6.1zM98 255.8c-3.3 0-6.1 2.7-6.1 6.1s2.7 6.1 6.1 6.1h65.7c3.3 0 6.1-2.7 6.1-6.1s-2.7-6.1-6.1-6.1H98z"/></svg>