<svg version="1.1" id="Calque_1" xmlns="http://www.w3.org/2000/svg" x="0" y="0" viewBox="-49 141 512 512" style="enable-background:new -49 141 512 512" xml:space="preserve"><style>.st0{fill:#fff}</style><path class="st0" d="m274.3 631.9 4.8-79.9 13.2-22.6s-30.1 12.3-80.6 12.3c-50.5 0-80.2-12.1-80.2-12.1l14.8 24.7 5.3 77.7c0 8.3 27.5 15.1 61.3 15.1 33.9-.1 61.4-6.8 61.4-15.2M259.1 258.6l10.1-39.8 55.8-58.7-14.7-12.5-59 62.5-11.7 47.6c-8.5-.3-17.3-.4-26.4-.4-62.2 0-112.6 7.1-112.6 15.8 0 8.7 50.4 15.8 112.6 15.8 62.2 0 112.6-7.1 112.6-15.8-.1-6.4-27.4-12-66.7-14.5"/><path class="st0" d="M253.3 280.9s-2.2.5-8.6.5c-6.4 0-11 0-12.8-1.7-.5-.4-.8-1.3-.8-1.9 0-1.1.8-1.8 1.8-2.2l1 1.5c-.4.1-.7.3-.7.5 0 .9 6.6 1.5 11.6 1.4 5-.1 11.1-.5 11.1-1.3 0-.3-.5-.5-1.3-.7l1-1.5c1.3.4 2.4 1.2 2.4 2.5.1 2.3-2.8 2.7-4.7 2.9M324.8 160.3c1.4-1.6-.7-5.8-4.8-9.3-4-3.5-8.4-5-9.8-3.4-1.4 1.6.7 5.8 4.8 9.2 4 3.6 8.4 5.1 9.8 3.5M271.6 436.7c-1.3-12.7 27.8-31.1 20.3-31.7-16.1.9-24.1 18.9-32.2 37.7-3 6.9-13.1 36.3-19.8 32.6-6.7-3.6 8.6-27.8 12.9-42.1-4.9 3.6-23.1 17.7-27.8 4.5-7.5 6.4-23.6 9.8-21.8-6.9-4 7.1-13 17-23.7 12.9-14.1-5.4 8.2-50.4 13.7-48.2 5.6 2.3-1.1 12.5-2.9 16.5-3.8 8.8-8.3 19.8-5.3 22.1 5.1 3.9 18.9-14.6 19.2-15 2.6-3.4 10-25.8 15.9-23.2 5.9 2.6-14.8 32.1-7.1 38 1.6 1.2 8-.7 11.9-4.9 2.5-2.7 1.7-8.8 10.1-28.8s15.9-45 21.7-43.1c5.8 1.9 1 14.7-1.1 19.5-9.7 22.4-26.5 59.4-18.6 56.6 7.9-2.8 12-3 19.8-12 7.7-9.1 7.4-24 12.6-23.7 5.2.3 4.3 5.1 3 8.8 5.1-5.8 24.1-18.1 28.7-5.9 5.4 14.4-27.2 35.1-19.1 34.1 7.9-1 20.8-9.2 26.3-16.6l15.1-135.8s-15.2 12.6-111.9 12.6-110.3-12.3-110.3-12.3l12.9 124c6.8-19.4 23-58.6 48.6-57.3 11.6.6 27.1 23 13.8 23.7-5.6.3-6.2-11.2-12.9-12.9-4.8-1.2-11.5 2.7-15.8 6.9-8.6 8.4-27.2 41.7-24.7 58.4 3.1 21.2 29.2-7.4 33.6-15.8 3.1-6 5.2-23.6 12-21.8 6.8 1.9-.6 20.1-5.5 36.2-5.5 18.1-8.4 37.2-15.4 35-6.9-2.2 4.4-25.6 4-29.7-6.5 6-18.5 21.3-33.9 13.7l8 77s21.2 16.8 85.2 16.8 86-16.5 86-16.5l9.9-89.2c-8.1 7.6-33.8 21.6-35.4 5.8"/></svg>