<svg xmlns="http://www.w3.org/2000/svg" viewBox="-49 141 512 512" style="enable-background:new -49 141 512 512" xml:space="preserve"><path d="M366.6 426.8c-14.9.1-27.8 3.6-38.6 8.9-4-7.9-7.9-14.8-8.7-20-.7-6-1.6-9.7-.7-16.8.9-7.2 5.1-17.3 5.1-18.1-.1-.7-.9-4.3-9.4-4.5-8.6-.1-16 1.6-16.8 3.9-.7 2.2-2.5 7.5-3.6 12.7-1.5 7.8-17.1 35.5-26.1 50.1-2.9-5.7-5.5-10.7-6-14.7-.7-6-1.6-9.7-.7-16.8.9-7.2 5.1-17.3 5.1-18.1-.1-.7-.9-4.3-9.4-4.5-8.6-.1-16 1.6-16.8 3.9-.7 2.2-1.7 7.6-3.6 12.7-1.7 5.2-22.5 51.4-27.9 63.5-2.7 6.2-5.2 11.1-7 14.4-1.7 3.4-.1.2-.2.6-1.5 2.9-2.4 4.3-2.4 4.3v.1c-1.1 2.1-2.4 4.1-3 4.1-.4 0-1.2-5.6.1-13.2 3.1-16 10.6-41.1 10.4-42 0-.4 1.4-4.8-4.8-7.1-6.1-2.2-8.2 1.5-8.7 1.5s-.9 1.4-.9 1.4 6.7-28.2-12.9-28.2c-12.3 0-29.3 13.4-37.6 25.6-5.3 2.9-16.6 9.1-28.6 15.6-4.6 2.5-9.3 5.2-13.8 7.6l-.9-1c-23.8-25.3-67.8-43.3-66-77.4.6-12.4 5-45.1 84.5-84.7 65.1-32.4 117.2-23.6 126.3-3.7 12.9 28.3-27.8 80.9-95.5 88.4-25.8 2.9-39.4-7.1-42.7-10.8-3.6-3.9-4.1-4.1-5.5-3.4-2.1 1.1-.9 4.7 0 6.7 2 5.2 10.3 14.5 24.5 19.3 12.4 4.1 42.7 6.3 79.2-7.8 41-15.9 73-60 63.6-96.9-9.6-37.5-71.8-49.8-130.5-28.9-35 12.4-72.9 31.9-100.2 57.5C3.4 341.3-1.8 367.8.5 378.7c7.6 39.1 61.6 64.7 83.2 83.6-1.1.6-2.1 1.1-3 1.6-10.8 5.3-52 26.8-62.4 49.7-11.7 25.8 1.9 44.3 10.8 46.8 27.8 7.7 56.3-6.2 71.7-29.1 15.3-22.9 13.4-52.5 6.5-66.1l-.2-.5 8.4-5c5.5-3.2 10.9-6.2 15.6-8.8-2.6 7.2-4.6 15.8-5.6 28.3-1.1 14.7 4.8 33.7 12.7 41.1 3.5 3.2 7.7 3.4 10.2 3.4 9.2 0 13.3-7.6 17.9-16.6C172 496 177 483.3 177 483.3s-6.2 34.7 10.8 34.7c6.2 0 12.4-8.1 15.3-12.2v.1s.1-.2.5-.9c.4-.5.6-1 1-1.6v-.1c2.5-4.3 8.1-14.3 16.4-30.6 10.7-21.1 21-47.6 21-47.6s1 6.5 4.1 17.1c1.9 6.3 5.8 13.2 8.9 20-2.5 3.5-4 5.5-4 5.5l.1.1c-2 2.6-4.2 5.5-6.6 8.3-8.4 10.2-18.6 21.7-20 25.1-1.6 3.9-1.2 6.8 1.9 9.2 2.2 1.6 6.2 2 10.4 1.6 7.7-.5 12.9-2.4 15.6-3.6 4.1-1.5 8.9-3.7 13.4-7.1 8.3-6.2 13.4-14.9 12.9-26.6-.2-6.5-2.4-12.7-5-18.8.7-1.1 1.5-2.1 2.2-3.4 13.2-19.3 23.4-40.4 23.4-40.4s1 6.5 4.1 17.1c1.6 5.5 4.7 11.3 7.6 17.1-12.3 10.1-20 21.7-22.7 29.3-5 14.2-1.1 20.5 6.2 22 3.2.6 7.9-.9 11.4-2.4 4.3-1.4 9.6-3.9 14.4-7.5 8.3-6.2 16.3-14.8 15.9-26.3-.2-5.3-1.6-10.6-3.6-15.5 10.4-4.3 24.1-6.8 41.2-4.7 37 4.3 44.3 27.4 43 37.1-1.4 9.7-9.2 15-11.7 16.6-2.6 1.6-3.4 2.1-3.1 3.4.4 1.7 1.5 1.6 3.7 1.4 3.1-.5 19.5-7.9 20.1-25.7 1-22.5-20.6-47.5-59.2-47.2zM81.2 523.1c-12.2 13.4-29.4 18.5-36.8 14.2-7.9-4.6-4.8-24.3 10.2-38.5 9.2-8.7 21-16.6 28.8-21.5 1.7-1.1 4.3-2.6 7.6-4.6.5-.4.9-.5.9-.5.6-.4 1.2-.7 1.9-1.1 5.6 20 .3 37.8-12.6 52zm89.4-60.9c-4.2 10.4-13.2 37.1-18.6 35.6-4.7-1.2-7.5-21.5-.9-41.5 3.4-10.1 10.4-22 14.5-26.7 6.7-7.5 14-9.9 15.9-7 2.2 4.2-8.3 33.1-10.9 39.6zm73.8 35.3c-1.9.9-3.5 1.6-4.2 1.1-.6-.4.7-1.6.7-1.6s9.2-9.9 12.9-14.5c2.1-2.6 4.6-5.7 7.2-9.2v1c0 12-11.4 19.9-16.6 23.2zm56.9-12.9c-1.4-1-1.1-4.1 3.4-13.8 1.7-3.9 5.7-10.2 12.7-16.3.9 2.5 1.4 5 1.2 7.2-.2 14.9-10.9 20.5-17.3 22.9z" style="fill:#fff"/></svg>