<svg xmlns="http://www.w3.org/2000/svg" viewBox="0 0 100 100" style="enable-background:new 0 0 100 100" xml:space="preserve"><path d="M86.1 55.6c-3.5 0-6.5.8-9.1 2.1-.9-1.9-1.9-3.5-2-4.7-.2-1.4-.4-2.3-.2-3.9.2-1.7 1.2-4.1 1.2-4.3 0-.2-.2-1-2.2-1s-3.8.4-3.9.9c-.2.5-.6 1.7-.8 3-.3 1.8-4 8.3-6.1 11.7-.7-1.3-1.3-2.5-1.4-3.4-.2-1.4-.4-2.3-.2-3.9.2-1.7 1.2-4.1 1.2-4.3 0-.2-.2-1-2.2-1s-3.8.4-3.9.9c-.2.5-.4 1.8-.8 3s-5.3 12.1-6.6 14.9c-.6 1.5-1.2 2.6-1.6 3.4-.4.8 0 .1-.1.1-.3.7-.6 1-.6 1-.3.5-.6 1-.7 1-.1 0-.3-1.3 0-3.1.7-3.8 2.5-9.7 2.4-9.9 0-.1.3-1.1-1.1-1.7-1.4-.5-1.9.3-2 .3-.1 0-.2.3-.2.3s1.6-6.6-3-6.6c-2.9 0-6.9 3.1-8.8 6-1.3.7-3.9 2.1-6.7 3.7-1.1.6-2.2 1.2-3.2 1.8l-.2-.2c-5.8-6-16.2-10.2-15.7-18.2.1-2.9 1.2-10.6 19.8-19.9 15.3-7.6 27.5-5.5 29.6-.8 3 6.6-6.5 19-22.4 20.8-6.1.7-9.2-1.7-10-2.5-.8-.9-1-1-1.3-.8-.5.3-.2 1.1 0 1.6.5 1.2 2.4 3.4 5.7 4.5 2.9 1 10 1.5 18.6-1.8 9.6-3.7 17.1-14.1 14.9-22.7-2.2-8.8-16.9-11.7-30.6-6.8-8.2 2.9-17.1 7.5-23.5 13.5C.8 35.7-.4 41.9.1 44.5c1.8 9.2 14.5 15.2 19.5 19.6-.3.1-.5.3-.7.4C16.4 65.6 6.7 70.6 4.3 76c-2.7 6 .4 10.4 2.5 11 6.5 1.8 13.2-1.5 16.8-6.8 3.6-5.4 3.1-12.3 1.5-15.5l-.1-.1 2-1.2c1.3-.8 2.6-1.5 3.7-2.1-.6 1.7-1.1 3.7-1.3 6.6-.3 3.4 1.1 7.9 3 9.7.8.8 1.8.8 2.4.8 2.2 0 3.1-1.8 4.2-3.9 1.3-2.6 2.5-5.6 2.5-5.6S40.1 77 44.1 77c1.5 0 2.9-1.9 3.6-2.9 0 0 0-.1.1-.2s.1-.2.2-.4c.6-1 1.9-3.4 3.8-7.2 2.5-5 4.9-11.2 4.9-11.2s.2 1.5 1 4c.4 1.5 1.4 3.1 2.1 4.7-.6.8-.9 1.3-.9 1.3-.5.6-1 1.3-1.5 2-2 2.4-4.4 5.1-4.7 5.9-.4.9-.3 1.6.4 2.2.5.4 1.5.5 2.4.4 1.8-.1 3-.6 3.7-.8 1-.3 2.1-.9 3.1-1.7 2-1.5 3.1-3.5 3-6.2-.1-1.5-.6-3-1.2-4.4.2-.3.3-.5.5-.8 3.1-4.5 5.5-9.5 5.5-9.5s.2 1.5 1 4c.4 1.3 1.1 2.7 1.8 4-2.9 2.4-4.7 5.1-5.3 6.9-1.2 3.3-.3 4.8 1.5 5.2.8.1 1.9-.2 2.7-.6 1-.3 2.2-.9 3.4-1.7 2-1.5 3.8-3.5 3.7-6.2-.1-1.3-.4-2.5-.8-3.6 2.4-1 5.7-1.6 9.7-1.1 8.7 1 10.4 6.4 10.1 8.7-.3 2.3-2.2 3.5-2.7 3.9-.6.4-.8.5-.7.8.1.4.3.4.9.3.7-.1 4.6-1.9 4.7-6 .1-5.4-5-11.3-14-11.2zm-67 22.6c-2.9 3.1-6.9 4.3-8.6 3.3-1.9-1.1-1.1-5.7 2.4-9 2.2-2 4.9-3.9 6.8-5 .4-.3 1-.6 1.8-1.1.1-.1.2-.1.2-.1.1-.1.3-.2.4-.3 1.2 4.7 0 8.9-3 12.2zM40 63.9c-1 2.4-3.1 8.7-4.4 8.4-1.1-.3-1.7-5-.2-9.7.8-2.4 2.4-5.2 3.4-6.3 1.6-1.7 3.3-2.3 3.7-1.6.6.9-1.8 7.7-2.5 9.2zm17.4 8.3c-.4.2-.8.4-1 .3-.1-.1.2-.4.2-.4s2.2-2.3 3-3.4c.5-.6 1.1-1.3 1.7-2.2v.2c0 2.9-2.7 4.7-3.9 5.5zm13.3-3.1c-.3-.2-.3-1 .8-3.2.4-.9 1.3-2.4 3-3.8.2.6.3 1.2.3 1.7-.1 3.5-2.6 4.8-4.1 5.3z" style="fill:#d0659b"/></svg>