<svg width="40" height="41" viewBox="0 0 40 41" fill="none" xmlns="http://www.w3.org/2000/svg">
<path d="M8.33333 13.8333V33.8333H31.6667V13.8333H8.33333ZM8.33333 10.4999H31.6667V7.16659H8.33333V10.4999ZM33.3333 37.1666H6.66667C5.7462 37.1666 5 36.4204 5 35.4999V5.49992C5 4.57945 5.7462 3.83325 6.66667 3.83325H33.3333C34.2538 3.83325 35 4.57945 35 5.49992V35.4999C35 36.4204 34.2538 37.1666 33.3333 37.1666ZM11.6667 17.1666H18.3333V23.8333H11.6667V17.1666ZM11.6667 27.1666H28.3333V30.4999H11.6667V27.1666ZM21.6667 18.8333H28.3333V22.1666H21.6667V18.8333Z" fill="#CCCCCC"/>
</svg>
