<svg width="40" height="40" viewBox="0 0 40 40" fill="none" xmlns="http://www.w3.org/2000/svg">
<path d="M11.6667 6.66659V33.3333H28.3334V6.66659H11.6667ZM10 3.33325H30C30.9205 3.33325 31.6667 4.07945 31.6667 4.99992V34.9999C31.6667 35.9204 30.9205 36.6666 30 36.6666H10C9.07957 36.6666 8.33337 35.9204 8.33337 34.9999V4.99992C8.33337 4.07945 9.07957 3.33325 10 3.33325ZM20 28.3333C20.9205 28.3333 21.6667 29.0794 21.6667 29.9999C21.6667 30.9204 20.9205 31.6666 20 31.6666C19.0795 31.6666 18.3334 30.9204 18.3334 29.9999C18.3334 29.0794 19.0795 28.3333 20 28.3333Z" fill="#CCCCCC"/>
</svg>
