<svg width="40" height="40" viewBox="0 0 40 40" fill="none" xmlns="http://www.w3.org/2000/svg">
<path d="M24.333 13.334H35C36.841 13.334 38.3333 14.8263 38.3333 16.6672V20.1746C38.3333 20.6099 38.248 21.0411 38.0823 21.4437L32.925 33.9686C32.6678 34.5931 32.0591 35.0006 31.3838 35.0006H3.33329C2.41283 35.0006 1.66663 34.2544 1.66663 33.3339V16.6672C1.66663 15.7468 2.41283 15.0006 3.33329 15.0006H9.13636C9.67791 15.0006 10.1857 14.7375 10.498 14.2951L19.587 1.41901C19.8245 1.08256 20.2721 0.970045 20.6405 1.15422L23.664 2.66593C25.4166 3.54231 26.3218 5.52161 25.8385 7.42066L24.333 13.334ZM11.6666 17.6464V31.6672H30.2676L35 20.1746V16.6672H24.333C22.1585 16.6672 20.5663 14.6189 21.1026 12.5116L22.6081 6.59831C22.7048 6.2185 22.5238 5.82263 22.1731 5.64736L21.0713 5.09641L13.2212 16.2174C12.8047 16.8074 12.2723 17.2911 11.6666 17.6464ZM8.33329 18.3339H4.99996V31.6672H8.33329V18.3339Z" fill="#CCCCCC"/>
</svg>
