<svg version="1.1" id="OBJECTS" xmlns="http://www.w3.org/2000/svg" x="0" y="0" viewBox="0 0 291.4 268.5" style="enable-background:new 0 0 291.4 268.5" xml:space="preserve"><style>.st0{fill:#c0e0f9}.st3{fill:#e0f0ff}.st5{opacity:.4;fill:#dbaefa}.st16{fill:#7dceff}.st17{fill:#0023ff}.st24{fill:#8261df}.st36{fill:#dca7f9}</style><path class="st0" d="M216.9 121.2h-43V74.6c0-11.9 9.6-21.5 21.5-21.5s21.5 9.6 21.5 21.5v46.6zm-42.1-1h41.1V74.6c0-11.3-9.2-20.5-20.5-20.5s-20.5 9.2-20.5 20.5v45.6z"/><linearGradient id="SVGID_1_" gradientUnits="userSpaceOnUse" x1="186.505" y1="114.211" x2="186.505" y2="100.179"><stop offset=".003" style="stop-color:#0023ff"/><stop offset="1" style="stop-color:#817ef9"/></linearGradient><path d="m185.2 114-4.5-4.6c-1.2-1.2-1.1-3.3.3-4.3l8.1-6.4-3.8 8.4 7.9 6.9h-8z" style="fill:url(#SVGID_1_)"/><linearGradient id="SVGID_2_" gradientUnits="userSpaceOnUse" x1="204.208" y1="114.211" x2="204.208" y2="100.179"><stop offset=".003" style="stop-color:#0023ff"/><stop offset="1" style="stop-color:#817ef9"/></linearGradient><path d="m205.5 114 4.5-4.6c1.2-1.2 1.1-3.3-.3-4.3l-8.1-6.4 3.8 8.4-7.9 6.9h8z" style="fill:url(#SVGID_2_)"/><path class="st0" d="M203.9 88.2c-.1 0-.2 0-.3-.1l-.2-.2h-.3c-.3 0-.5-.2-.5-.5s.2-.5.5-.5h.7l.5.5c.2.2.2.5 0 .7-.1.1-.2.1-.4.1zM205.9 90.2c-.1 0-.2 0-.3-.1l-.5-.5c-.2-.2-.2-.5 0-.7.2-.2.5-.2.7 0l.5.5c.2.2.2.5 0 .7-.1.1-.2.1-.4.1zM207.4 92.4c-.1 0-.3-.1-.4-.2-.2-.2-.1-.5 0-.7-.2-.2-.1-.5 0-.7.2-.2.5-.2.7 0l.7.7-.8.7c0 .1-.1.2-.2.2zM198.1 100.1c-.1 0-.3-.1-.4-.2-.2-.2-.1-.5.1-.7l.8-.6c.2-.2.5-.1.7.1.2.2.1.5-.1.7l-.8.6c-.1 0-.2.1-.3.1zm3.1-2.6c-.1 0-.3-.1-.4-.2-.2-.2-.1-.5.1-.7l.8-.6c.2-.2.5-.1.7.1.2.2.1.5-.1.7l-.8.6c-.1.1-.2.1-.3.1zm3.1-2.6c-.1 0-.3-.1-.4-.2-.2-.2-.1-.5.1-.7l.8-.6c.2-.2.5-.1.7.1.2.2.1.5-.1.7l-.8.6c-.1.1-.2.1-.3.1zM195.4 102.5l-.7-.6c-.2-.2-.2-.5-.1-.7.2-.2.5-.2.7-.1l.1.1.1-.1c.2-.2.5-.1.7.1.2.2.1.5-.1.7l-.7.6zM192.9 100.1c-.1 0-.2 0-.3-.1l-.8-.6c-.2-.2-.2-.5-.1-.7.2-.2.5-.2.7-.1l.8.6c.2.2.2.5.1.7-.1.1-.3.2-.4.2zm-3.1-2.6c-.1 0-.2 0-.3-.1l-.8-.6c-.2-.2-.2-.5-.1-.7.2-.2.5-.2.7-.1l.8.6c.2.2.2.5.1.7-.1.1-.3.2-.4.2zm-3.1-2.6c-.1 0-.2 0-.3-.1l-.8-.6c-.2-.2-.2-.5-.1-.7.2-.2.5-.2.7-.1l.8.6c.2.2.2.5.1.7-.1.2-.3.2-.4.2zM183.3 92.4c-.1 0-.2 0-.1-.1l-.8-.7.5-.7c.2-.2.5-.2.7 0 .2.2.2.5 0 .7.2.2.2.5 0 .7 0 0-.1.1-.3.1zM184.8 90.2c-.1 0-.2 0-.3-.1-.2-.2-.2-.5 0-.7l.5-.5c.2-.2.5-.2.7 0 .2.2.2.5 0 .7l-.3.5c-.1.1-.5.1-.6.1zM187 88.2c-.1 0-.2 0-.3-.1-.2-.2-.2-.5 0-.7l.5-.5h.7c.3 0 .5.2.5.5s-.2.5-.5.5h-.3l-.2.2c-.1.1-.3.1-.4.1zM200.2 87.9h-1c-.3 0-.5-.2-.5-.5s.2-.5.5-.5h1c.3 0 .5.2.5.5 0 .2-.2.5-.5.5zm-4.1 0h-1c-.3 0-.5-.2-.5-.5s.2-.5.5-.5h1c.3 0 .5.2.5.5 0 .2-.2.5-.5.5zm-4.1 0h-1c-.3 0-.5-.2-.5-.5s.2-.5.5-.5h1c.3 0 .5.2.5.5 0 .2-.2.5-.5.5z"/><path class="st3" d="M188.1 251.8c-1.4-5.9-4.9-11.2-10-14.2-7.7-4.5-21.1-1.1-26.1 6.2-3.1-4.9-8.1-8.6-13.7-10-5.6-1.4-12.7-1-17.8 1.9-.7-6.9-5.2-13.2-11.5-16.1-6.2-2.9-15.4-2.8-21.1 1-.4-3.5-3.1-6.6-6.5-7.5-3.4-.9-8.5.3-10.6 3.1-7.8-3.6-17.5-2.6-24.5 2.3-7 5-11.2 13.8-10.4 22.3-4.5-1.1-9.6.1-13.1 3.1-2.3 2-4 4.8-4.7 7.8h170z"/><linearGradient id="SVGID_3_" gradientUnits="userSpaceOnUse" x1="168.159" y1="241.165" x2="141.175" y2="201.833"><stop offset=".009" style="stop-color:#7dceff"/><stop offset=".998" style="stop-color:#e4abf9"/></linearGradient><path d="M148 232.2c1.7 2.7 5.2 3.9 7.3 6.2 1.9 2 2.7 4.8 3.3 7.4.5 2 .9 4.1 1.8 6H177c.6-1 .9-2.1 1-3.4.4-6.5-5.9-11.3-7.9-17.5-.8-2.6-.9-5.4-1.3-8.1-.4-2.7-1.4-5.5-3.5-7.2-2.6-2-6.5-2.2-8.2-5-1.7-2.7-.2-6.5-1.8-9.2-1.3-2.2-4.4-3.1-6.8-2-2.4 1.1-3.8 3.7-3.8 6.3 0 3.6 2.6 6.8 3.2 10.4.8 5.4-2.8 11.5.1 16.1z" style="fill:url(#SVGID_3_)"/><path class="st5" d="m154.6 217.5-3.2-1.5c-.2-.1-.5 0-.6.2-.1.2 0 .5.2.6l4.1 2 6.1 15.6-6.7-4.4c-.2-.1-.5-.1-.7.1-.1.2-.1.5.1.7l7.8 5.2 6.3 15.9h.9c0-.1.1-.2 0-.4l-10.1-25.7 1.8-7.2c.1-.3-.1-.5-.3-.6-.3-.1-.5.1-.6.3l-1.4 5.9-5.8-14.7 1.3-4.3c.1-.3-.1-.5-.3-.6-.3-.1-.5.1-.6.3l-1 3.2-1.3-3.2c-.1-.2-.4-.4-.6-.3-.2.1-.4.4-.3.6l4.9 12.3z"/><linearGradient id="SVGID_4_" gradientUnits="userSpaceOnUse" x1="156.271" y1="234.163" x2="148.598" y2="242.441"><stop offset=".009" style="stop-color:#817ef9"/><stop offset=".998" style="stop-color:#e4abf9"/></linearGradient><path d="M154.2 251.8H171c0-.9-.1-1.9-.4-3.1-.9-3.2-3.6-5.5-6.3-7.3-2.8-1.8-5.8-3.3-8.2-5.6-1.8-1.8-3.2-4-5.5-5-2.2-1-5-.6-7-1.9-1.5-1-2.2-2.8-3.4-4.2-1.1-1.4-3.1-2.5-4.7-1.5-2.9 1.8-.3 7.3 1.6 8.8 1.1.9 2.5 1.7 3.2 3 1 1.8.7 4.2 1.8 5.9 1.4 2.3 4.5 2.8 6.9 4 2.9 1.4 3 4.6 5.2 6.9z" style="fill:url(#SVGID_4_)"/><path class="st5" d="M164.9 250.5c-5.1-3.4-9.9-7.2-14.5-11.2l-.4-4.9c0-.3-.3-.5-.5-.4-.3 0-.5.3-.4.5l.4 3.9c-4-3.6-7.7-7.4-11.2-11.4-.2-.2-.5-.2-.7 0-.2.2-.2.5 0 .7 2.2 2.5 4.5 4.9 6.9 7.3h-1.3c-.3 0-.5.2-.5.5s.2.5.5.5h2.3c1.4 1.4 2.9 2.7 4.3 4l.1.1c2.1 1.9 4.4 3.7 6.6 5.5l-2.4.9c-.2.1-.4.4-.3.6.1.2.3.3.4.3h.2l3-1.1c2.4 1.8 4.8 3.5 7.2 5.2.1.1.2.1.3.1.2 0 .3-.1.4-.2-.1-.4-.2-.7-.4-.9z"/><linearGradient id="SVGID_5_" gradientUnits="userSpaceOnUse" x1="208.297" y1="257.514" x2="246.702" y2="213.461"><stop offset=".009" style="stop-color:#8339bc"/><stop offset="1" style="stop-color:#817ef9"/></linearGradient><path d="M250.2 208.2c-2-1.3-4.9-1.1-6.7.5-3.2 2.8-2.3 8.5-5.6 11.2-3.2 2.6-8.1.8-11.7 2.7-5.1 2.7-4.4 10.8-8.9 14.4-2.4 1.9-5.6 2.1-8.3 3.6-2.7 1.4-4.7 4.1-5.2 7.1-.2 1.1-.2 2.6 0 4.1H228c4.6-3.7 3.4-12.4 8.4-15.9 2.1-1.4 5.1-1.6 6.8-3.6 2.3-2.6 1.2-6.7 2.7-9.9 1.5-3.1 5.4-4.7 6.5-8 .8-2.1-.2-4.8-2.2-6.2z" style="fill:url(#SVGID_5_)"/><path d="M249.1 212.1c-.2-.1-.4-.1-.6 0-1.6 1.8-3.3 3.5-5 5.3V213c0-.2-.2-.4-.4-.4s-.4.2-.4.4v5.2c-4.9 5.1-10 10.2-14.9 15.1l-3.8 3.8v-5.9c0-.2-.2-.4-.4-.4s-.4.2-.4.4v6.7l-13.9 13.9h1.1l17.9-17.9 4.2-4.2h4.2c.2 0 .4-.2.4-.4s-.2-.4-.4-.4h-3.4c3.3-3.4 6.7-6.8 10-10.2 1.9-2 3.8-4 5.6-6 .4-.2.4-.5.2-.6z" style="opacity:.4;fill:#8260de"/><linearGradient id="SVGID_6_" gradientUnits="userSpaceOnUse" x1="247.687" y1="228.07" x2="222.978" y2="254.722"><stop offset=".009" style="stop-color:#817ef9"/><stop offset=".998" style="stop-color:#e4abf9"/></linearGradient><path d="M249.9 228.3c-1.2-1-3-.5-4.2.4-1.2.9-2.1 2.2-3.4 3.1-3.6 2.5-9.2 1-12.2 4.1-1.9 2-2 5.1-3.5 7.5-1.4 2.3-4 3.7-6.4 4.9-2.1 1-4.4 2-6.1 3.6h22.1c.3-.1.5-.2.8-.4 2.4-1.4 4.4-4.1 5.4-6.7 1-2.7 1.2-5.9 3.1-8.1 1.2-1.4 2.9-2.2 4.1-3.5 1.1-1.4 1.7-3.8.3-4.9z" style="fill:url(#SVGID_6_)"/><path class="st5" d="M245.4 232.1c-.2-.2-.4-.2-.6 0-3.2 3.2-6.4 6.4-9.7 9.5v-3.5c0-.2-.2-.4-.4-.4s-.4.2-.4.4v4.3c-.4.3-.7.7-1.1 1v-1.3c0-.2-.2-.4-.4-.4s-.4.2-.4.4v2c-2.9 2.6-5.8 5.2-8.7 7.7h1.2c1.5-1.3 3.1-2.6 4.6-4h7.4c.2 0 .4-.2.4-.4s-.2-.4-.4-.4h-6.5c.9-.8 1.8-1.6 2.7-2.5l.1-.1c.6-.6 1.2-1.1 1.9-1.7l5.1-4.8h2.3c.2 0 .4-.2.4-.4s-.2-.4-.4-.4H241l4.5-4.5c0-.1 0-.3-.1-.5z"/><linearGradient id="SVGID_7_" gradientUnits="userSpaceOnUse" x1="196.891" y1="241.02" x2="218.096" y2="93.674"><stop offset=".003" style="stop-color:#5c00a9"/><stop offset="1" style="stop-color:#817ef9"/></linearGradient><path d="M229 247.4h-7.1c-10.2 0-9.8-8.2-18.7-8.2V128.1h-15.7v111.2c-8.9 0-8.5 8.2-18.7 8.2h-7.1c-2.4 0-4.4 2-4.4 4.4h76c.1-2.5-1.9-4.5-4.3-4.5z" style="fill:url(#SVGID_7_)"/><linearGradient id="SVGID_8_" gradientUnits="userSpaceOnUse" x1="144.292" y1="86.359" x2="21.287" y2="367.631" gradientTransform="translate(-5.24)"><stop offset=".003" style="stop-color:#0023ff"/><stop offset="1" style="stop-color:#817ef9"/></linearGradient><path d="m65.4 250.9 26.1-114c.1-.4.5-.8.9-.8.6-.1 1.2.4 1.2 1.1L93.5 251h15l-3.3-4.3s3.8-69.6 1.2-119.4l-26.9.5-24.8 118.8-6.2 4.3h16.9z" style="fill:url(#SVGID_8_)"/><linearGradient id="SVGID_9_" gradientUnits="userSpaceOnUse" x1="132.999" y1="101.13" x2="154.026" y2="83.905"><stop offset=".009" style="stop-color:#7dceff"/><stop offset=".998" style="stop-color:#e4abf9"/></linearGradient><path style="fill:url(#SVGID_9_)" d="M139.9 89.7h8.8V94h-8.8z"/><linearGradient id="SVGID_10_" gradientUnits="userSpaceOnUse" x1="138.906" y1="87.508" x2="138.906" y2="102.334"><stop offset="0" style="stop-color:#ffd125"/><stop offset="1" style="stop-color:#fff576"/></linearGradient><path d="M139.9 89.7s2.9-.1 2.9-1-4.9-1.2-5.7-1.3c-.8-.1-5.7 7.8-5.7 7.8l2.8 3.5 3.9-4.1c1.4.1 8.1-.6 8.1-.6l-6.3-4.3z" style="fill:url(#SVGID_10_)"/><linearGradient id="SVGID_11_" gradientUnits="userSpaceOnUse" x1="105.799" y1="69.589" x2="-17.206" y2="350.86"><stop offset=".003" style="stop-color:#0023ff"/><stop offset="1" style="stop-color:#817ef9"/></linearGradient><path d="M131.6 93.2 119 106.5l-10.3-22.3c-.9-2.4-3.4-3.8-5.9-3.3l-38.7 6.6 13.7-18.7-6.9-5S52.1 88.3 52 93.5c-.1 5.2 21.2 2.6 27.6 2l-.1 32.2 26.9-.5 1.2-24.1c3 5.6 6.6 14.4 9.8 14 6.2-.7 19.3-18.2 19.3-18.2l-5.1-5.7z" style="fill:url(#SVGID_11_)"/><linearGradient id="SVGID_12_" gradientUnits="userSpaceOnUse" x1="418.924" y1="203.26" x2="571.655" y2="-1.885" gradientTransform="matrix(-1 0 0 1 601.941 0)"><stop offset=".009" style="stop-color:#8339bc"/><stop offset="1" style="stop-color:#817ef9"/></linearGradient><path d="M91.2 78.9s-1.7 0-2 1c-.5 1.4.2 7.6 1.3 7.5 1 0 3.8-4.3 3.8-4.3s4.1 3.3 5 2.6c.9-.6-1.7-7.9-3.8-7.4-2.1.4-4.3.6-4.3.6z" style="fill:url(#SVGID_12_)"/><path class="st16" d="M93.8 82.6c-.9.1-1.7.1-2.3-.6-1.2-1.3-1.1-3.3-2.4-4.6-.6-.6-1.3-1.1-1.9-1.6-1-.8-1.6-2-2.1-3.1-2.5-5.2-2.8-17.1 5.5-17.7 8.3-.6 9.7 8.7 9.7 13 0 1.7-.1 3.5-.6 5.1-.3.8-.7 1.6-1.3 2.3-.7.7-1.5 1-2.2 1.6-1 .8-.4 2.3-.3 3.4.1 1.3-.7 2-2.1 2.2z"/><circle class="st16" cx="82.8" cy="69.5" r="2.4"/><circle class="st16" cx="101" cy="67.4" r="2.4"/><circle class="st17" cx="92" cy="67.2" r=".8"/><ellipse transform="rotate(-7.115 93.597 72.113)" cx="93.6" cy="72.1" rx=".8" ry="1.3" style="fill:#fffeff"/><circle class="st17" cx="96.5" cy="66.8" r=".8"/><path class="st17" d="M93.8 70.4c-.1 0-.2-.1-.2-.2s.1-.2.2-.2c.8 0 1.4-.2 1.5-.3 0-.3-.6-.7-1.1-.9-.1 0-.1-.1-.1-.2l-.5-2c0-.1.1-.3.2-.3s.3.1.3.2l.4 1.9c.4.2 1.2.7 1.3 1.2 0 .1 0 .3-.1.4-.5.4-1.7.4-1.9.4zM100.4 68.6c-.1 0-.2-.1-.2-.2 0-1 .6-2 1.4-2.4.1-.1.3 0 .3.1.1.1 0 .3-.1.3-.7.4-1.2 1.2-1.2 2 .1.1 0 .2-.2.2z"/><path class="st17" d="M101.8 68c-.1 0-.2 0-.2-.1-.1-.2-.4-.4-.7-.3-.1 0-.3-.1-.3-.2s.1-.3.2-.3c.4 0 .9.2 1.1.6.1.1 0 .3-.1.3.1 0 0 0 0 0zM83.9 70.2c-.1 0-.1 0 0 0-.2-.1-.3-.2-.2-.3.2-.4 0-.9-.4-1.1-.4-.2-.9-.1-1.2.3-.1.1-.2.1-.3.1-.1-.1-.1-.2-.1-.3.4-.6 1.2-.8 1.8-.5.6.3.9 1.1.7 1.7-.2 0-.2.1-.3.1zM96.6 64c-.8 0-1.7-.4-2.3-1-.1-.1-.1-.3 0-.3.1-.1.3-.1.3 0 .6.7 1.6 1 2.4.8.1 0 .3.1.3.2s-.1.3-.2.3h-.5zM89.2 65.7c-.1 0-.2-.1-.2-.2s.1-.3.2-.3c1.1-.2 2.1-1.1 2.4-2.2 0-.1.2-.2.3-.2.1 0 .2.2.2.3-.4 1.4-1.6 2.4-2.9 2.6z"/><path class="st16" d="M76.9 68s5.7-3.9 6-5.5c.3-1.6-2.7.4-2.7.4s5.2-7.6 4.3-7.7-2.9 2.4-2.9 2.4 1.5-3.6 1-3.7c-.6-.2-2.8 2.1-2.8 2.1s1.8-3.1.9-3.2c-.9-.1-4.5 4.7-4.5 4.7s1-3.3.5-3.1c-.6.1-5 9.9-5 9.9l5.2 3.7z"/><linearGradient id="SVGID_13_" gradientUnits="userSpaceOnUse" x1="87.048" y1="68.808" x2="96.722" y2="42.233"><stop offset=".003" style="stop-color:#0023ff"/><stop offset="1" style="stop-color:#817ef9"/></linearGradient><path d="m102.9 54.1-3.1 1.4s5.5-5.6-1-10.2l-6.2 7.3s-5.4-.2-8 1.5c-2.6 1.6-3.1 4.1-3.1 4.1l-2.2-1.7-.7 1.9 2.4.3-2 .6 1.6.3s-1.6 2-1.2 3.7c.3 1.6 3.2 3.8 3.2 3.8s.4-.2 1 .1c1.3.6 1.8 2.5 1.8 2.5l.8-.3-.5-4.4s2.9-.1 2.9-4.2c0 0 4.4 2.3 7.6.3l-5-1.3s3 .6 6-.1c.6 1.6 2.1 2.8 2.1 2.8l-.2 4.2.9-.2c.4-2.6-.1-5.9-.4-7.7 1.5-.9 2.8-2.3 3.3-4.7z" style="fill:url(#SVGID_13_)"/><linearGradient id="SVGID_14_" gradientUnits="userSpaceOnUse" x1="195.356" y1="130.195" x2="195.356" y2="107.881"><stop offset=".003" style="stop-color:#0023ff"/><stop offset="1" style="stop-color:#817ef9"/></linearGradient><path style="fill:url(#SVGID_14_)" d="M185.2 114h20.3v16h-20.3z"/><path class="st3" d="M154.9 152.1c.1-.1.2-.1.3 0 .1.1.3.1.2.2-.1.1-.2.2-.4.2-.1-.1-.2-.2-.1-.4zm2.1.4c.1-.1.2-.2.2-.4-.1-.1-.2-.1-.3 0-.1.1-.3.1-.2.2s.1.2.3.2zm8.1-6.6v17.4c0 .9-.8 1.7-1.7 1.7h-14.8c-.9 0-1.7-.8-1.7-1.7v-17.4c0-.9.8-1.7 1.7-1.7h14.8c1-.1 1.7.7 1.7 1.7zm-6.6 16.5c0-.2-.1-.3-.3-.3h-4.4c-.2 0-.3.1-.3.3 0 .2.1.3.3.3h4.4c.2-.1.3-.2.3-.3zm3.4-1.1c0-.2-.1-.3-.3-.3h-11.3c-.2 0-.3.1-.3.3 0 .2.1.3.3.3h11.3c.2 0 .3-.1.3-.3zm-7.6-7.6c.4.9 1 1.5 1.7 1.5s1.3-.7 1.7-1.5c-.4.7-1 1.2-1.7 1.2s-1.3-.5-1.7-1.2zm1.7-1c.1 0 2.6.7 2.1-.9-.3-.9-1.6 0-2.1 0s-1.7-.9-2.1 0c-.5 1.6 2 .9 2.1.9zm-2.5 6.2c-.3 0-.5.2-.5.5s.2.5.5.5h5c.3 0 .5-.2.5-.5s-.2-.5-.5-.5h-5zm9.5-5.8c0-3.9-3.1-7-7-7s-7 3.1-7 7c0 1.5.5 2.9 1.3 4l3-1.7.8-.8v-1.4c-.2.1-.5.2-.8-.1-.4-.4-.4-1-.1-1.2.2-.2.5-.1.6 0-.2-.4-.3-.9-.3-1.2-.1-.7.3-.8.4-.8 0 0 0-1.1 1.2-1.6s3 .2 3.3.4l-.4.4.8.5s-.1.2-.4.2c0 0 .2.3.3.6 0 .2-.1.9-.3 1.4.2-.1.5-.2.6 0 .2.2.2.8-.1 1.2-.2.3-.6.2-.8.1v1.4l.8.8 3 1.7c.6-1 1.1-2.4 1.1-3.9z"/><linearGradient id="SVGID_15_" gradientUnits="userSpaceOnUse" x1="697.781" y1="239.762" x2="718.986" y2="92.417" gradientTransform="matrix(-1 0 0 1 900.344 0)"><stop offset=".003" style="stop-color:#0023ff"/><stop offset="1" style="stop-color:#817ef9"/></linearGradient><path style="fill:url(#SVGID_15_)" d="M169.9 130.3h51V249h-51z"/><linearGradient id="SVGID_16_" gradientUnits="userSpaceOnUse" x1="195.356" y1="129.588" x2="195.356" y2="138.044"><stop offset="0" style="stop-color:#ffb325"/><stop offset="1" style="stop-color:#ffda76"/></linearGradient><path style="fill:url(#SVGID_16_)" d="M166.2 127h58.3v8.6h-58.3z"/><linearGradient id="SVGID_17_" gradientUnits="userSpaceOnUse" x1="192.644" y1="139.373" x2="196.614" y2="121.324"><stop offset="0" style="stop-color:#ffd125"/><stop offset="1" style="stop-color:#fff576"/></linearGradient><path d="M235.3 118.4h-79.9c-4.8 0-8.6 3.9-8.6 8.6 0 4.8 3.9 8.6 8.6 8.6 3.5 0 6.5-2.1 7.9-5.1h64.2c1.4 3 4.4 5.1 7.9 5.1 4.8 0 8.6-3.9 8.6-8.6 0-4.7-3.9-8.6-8.7-8.6z" style="fill:url(#SVGID_17_)"/><path class="st24" d="m76 83.9 9.2-1.7.5 5.6-8.7.9-3.9-1.3zM100.5 83.8l-.3-3.8h8.3l2.1 2.2-3.5 1.9z"/><linearGradient id="SVGID_18_" gradientUnits="userSpaceOnUse" x1="129.749" y1="174.422" x2="260.964" y2="174.422"><stop offset=".009" style="stop-color:#7dceff"/><stop offset=".998" style="stop-color:#e4abf9"/></linearGradient><path d="M258.7 162.5c-15.9 15.4-39 23.7-63.4 23.7s-47.5-8.4-63.4-23.7" style="fill:none;stroke:url(#SVGID_18_);stroke-width:4.4424;stroke-linecap:round;stroke-linejoin:round;stroke-miterlimit:10"/><linearGradient id="SVGID_19_" gradientUnits="userSpaceOnUse" x1="129.496" y1="160.847" x2="129.496" y2="280.927"><stop offset="0" style="stop-color:#ffd125"/><stop offset="1" style="stop-color:#fff576"/></linearGradient><path style="fill:url(#SVGID_19_)" d="M127 160.1h4.9v91.8H127z"/><linearGradient id="SVGID_20_" gradientUnits="userSpaceOnUse" x1="127.766" y1="161.646" x2="131.74" y2="150.728"><stop offset="0" style="stop-color:#ffd125"/><stop offset="1" style="stop-color:#fff576"/></linearGradient><circle cx="129.5" cy="156.9" r="5.7" style="fill:url(#SVGID_20_)"/><linearGradient id="SVGID_21_" gradientUnits="userSpaceOnUse" x1="639.127" y1="160.847" x2="639.127" y2="280.927" gradientTransform="matrix(-1 0 0 1 900.344 0)"><stop offset="0" style="stop-color:#ffd125"/><stop offset="1" style="stop-color:#fff576"/></linearGradient><path style="fill:url(#SVGID_21_)" d="M258.7 160.1h4.9v91.8h-4.9z"/><linearGradient id="SVGID_22_" gradientUnits="userSpaceOnUse" x1="637.397" y1="161.646" x2="641.371" y2="150.728" gradientTransform="matrix(-1 0 0 1 900.344 0)"><stop offset="0" style="stop-color:#ffd125"/><stop offset="1" style="stop-color:#fff576"/></linearGradient><circle cx="261.2" cy="156.9" r="5.7" style="fill:url(#SVGID_22_)"/><linearGradient id="SVGID_23_" gradientUnits="userSpaceOnUse" x1="150.323" y1="92.06" x2="151.832" y2="91.4"><stop offset="0" style="stop-color:#ffb325"/><stop offset="1" style="stop-color:#ffda76"/></linearGradient><path d="M150.4 95c1.6 0 2.9-1.3 2.9-2.9v-.6c0-1.6-1.3-2.9-2.9-2.9V95z" style="fill:url(#SVGID_23_)"/><linearGradient id="SVGID_24_" gradientUnits="userSpaceOnUse" x1="135.467" y1="-138.508" x2="156.494" y2="-155.733" gradientTransform="matrix(1 0 0 -1 0 -58.898)"><stop offset=".009" style="stop-color:#7dceff"/><stop offset=".998" style="stop-color:#e4abf9"/></linearGradient><path style="fill:url(#SVGID_24_)" d="M148.7 88h3.5v7.8h-3.5z"/><linearGradient id="SVGID_25_" gradientUnits="userSpaceOnUse" x1="50.091" y1="113.475" x2="157.315" y2="252.042"><stop offset=".003" style="stop-color:#0023ff"/><stop offset="1" style="stop-color:#817ef9"/></linearGradient><path style="fill:url(#SVGID_25_)" d="m74.8 123.1 3.1.3-7.3 39.3-3.2-.9z"/><linearGradient id="SVGID_26_" gradientUnits="userSpaceOnUse" x1="57.979" y1="107.371" x2="165.203" y2="245.938"><stop offset=".003" style="stop-color:#0023ff"/><stop offset="1" style="stop-color:#817ef9"/></linearGradient><path style="fill:url(#SVGID_26_)" d="M70.7 127.6h8.8v3.7h-8.8z"/><path class="st3" d="m239.3 44.5-3.9-3.9 6.6-6.7-7.5-7.4-14.8 14.7 1.2 1.2-4 1.7 7.4 7.5 1.7-4 1.2 1.1 6.6-6.6 4.6 4.6h7.6v-2.2z"/><linearGradient id="SVGID_27_" gradientUnits="userSpaceOnUse" x1="124.925" y1="65.487" x2="180.948" y2="2.584"><stop offset="0" style="stop-color:#ffd125"/><stop offset="1" style="stop-color:#fff576"/></linearGradient><path d="M151.3 16.7c-10.6 0-19.2 8.6-19.2 19.2s8.6 19.2 19.2 19.2 19.2-8.6 19.2-19.2-8.6-19.2-19.2-19.2zm5.7 27.5c-1.1 1.1-2.5 1.9-4.2 2.2v1.4c0 .8-.6 1.4-1.4 1.4-.8 0-1.4-.6-1.4-1.4v-1.4c-1.4-.2-2.6-.7-3.6-1.4s-1.8-1.6-2.2-2.6c-.1-.3-.2-.6-.2-.9 0-.2 0-.3.1-.5.1-.3.4-.6.8-.9.3-.1.5-.2.7-.2.5 0 1 .3 1.5 1 .9 1.5 2.5 2.3 4.4 2.3 1 0 2-.3 2.7-.8.8-.5 1.3-1.3 1.3-2.2 0-.9-.4-1.6-1.3-2.1-.6-.3-1.2-.5-2.2-.8l-.4-.1c-2.2-.4-3.9-1.1-5-2-1.4-1.1-2-2.4-2-4.1 0-1.5.6-2.9 1.6-4 1-1 2.4-1.7 3.9-2V24c0-.4.1-.7.4-1 .3-.3.6-.4 1-.4s.7.1 1 .4c.3.3.4.6.4 1v1.2c2.1.3 3.9 1.4 4.8 3 .1.2.2.4.2.6v.3c-.1.3-.2.6-.4.8-.2.2-.7.4-1.1.4-.4 0-.7-.1-1-.3-.7-.6-1.3-1-1.7-1.2-.6-.3-1.3-.4-2.2-.4-1 0-1.9.3-2.6.7-.7.5-1.1 1.2-1.1 2 0 .9.5 1.5 1.4 2 .8.4 1.7.6 3.3 1 1.8.5 3.2 1 4.2 1.9 1.3 1 1.9 2.4 1.9 4 .1 1.6-.6 3.1-1.6 4.2z" style="fill:url(#SVGID_27_)"/><linearGradient id="SVGID_28_" gradientUnits="userSpaceOnUse" x1="225.966" y1="120.268" x2="286.904" y2="50.485"><stop offset=".125" style="stop-color:#abdcff"/><stop offset=".998" style="stop-color:#eaefff"/></linearGradient><path d="M250.1 84.2c.1-.3.4-.2.7-.1.3.1.6.2.5.5-.1.3-.5.5-.8.4s-.5-.5-.4-.8zm4.7.8c.3-.1.5-.5.4-.8-.1-.3-.4-.2-.7-.1-.3.1-.6.2-.5.5.1.4.5.5.8.4zm18.5-14.9v39.3c0 2.1-1.7 3.9-3.9 3.9h-33.5c-2.1 0-3.9-1.7-3.9-3.9V70.1c0-2.1 1.7-3.9 3.9-3.9h33.5c2.2 0 3.9 1.7 3.9 3.9zm-15.1 37.3c0-.4-.3-.6-.6-.6h-9.9c-.4 0-.6.3-.6.6 0 .4.3.6.6.6h9.9c.4.1.6-.2.6-.6zm7.8-2.4c0-.4-.3-.6-.6-.6h-25.5c-.4 0-.6.3-.6.6 0 .4.3.6.6.6h25.5c.3.1.6-.2.6-.6zm-17.2-17.2c.9 1.9 2.2 3.4 3.8 3.4 1.5 0 2.9-1.5 3.8-3.4-.9 1.6-2.2 2.8-3.8 2.8-1.5 0-2.9-1.2-3.8-2.8zm3.8-2.3c.2.1 5.9 1.5 4.7-2-.7-2.1-3.6 0-4.7 0s-4-2.1-4.7 0c-1.1 3.5 4.5 2.1 4.7 2zM247 99.6c-.6 0-1 .5-1 1s.5 1 1 1h11.3c.6 0 1-.5 1-1s-.5-1-1-1H247zm21.5-13.2c0-8.8-7.1-15.9-15.9-15.9s-15.9 7.1-15.9 15.9c0 3.4 1.1 6.6 2.9 9.2l6.8-4 1.8-1.8v-3.3c-.5.2-1.2.4-1.8-.2-.8-.9-.8-2.3-.3-2.8.4-.4 1.1-.1 1.4 0-.3-.9-.7-2-.8-2.7-.2-1.6.6-1.9.9-1.9 0 0 .1-2.4 2.8-3.6 2.7-1.2 6.7.5 7.5 1l-.9 1 1.8 1.1s-.1.4-.9.5c0 0 .5.6.6 1.3.1.4-.3 2-.6 3.2.3-.1 1-.4 1.4 0 .5.5.5 1.8-.3 2.8-.5.6-1.3.4-1.8.2v3.3l1.8 1.8 6.8 4c1.6-2.5 2.7-5.7 2.7-9.1z" style="fill:url(#SVGID_28_)"/><path class="st0" d="M127.9 70.8h-1.7V59.5c0-1.5-1.3-2.8-2.8-2.8-1.5 0-2.8 1.3-2.8 2.8v2.9h-1.7v-2.9c0-2.5 2-4.5 4.5-4.5s4.5 2 4.5 4.5v11.3z"/><path class="st0" d="M127.5 64.2h-8.4c-1 0-1.7.8-1.7 1.7v6.2c0 1 .8 1.7 1.7 1.7h8.4c1 0 1.7-.8 1.7-1.7v-6.2c0-.9-.7-1.7-1.7-1.7zm-3.7 5.2v1.1c0 .2-.2.4-.4.4s-.4-.2-.4-.4v-1.1c-.3-.2-.6-.5-.6-.9 0-.6.5-1 1-1 .6 0 1 .5 1 1 0 .4-.3.7-.6.9z"/><path class="st36" d="M50.1 190.1c0 .3-.2.5-.5.5h-4.4v4.4c0 .3-.2.5-.5.5h-4.4v4.4c0 .3-.2.5-.5.5h-4.4v4.4c0 .3-.2.5-.5.5s-.5-.2-.5-.5v-4.9c0-.3.2-.5.5-.5h4.4V195c0-.3.2-.5.5-.5h4.4v-4.4c0-.3.2-.5.5-.5h4.9c.3 0 .5.2.5.5z"/><path class="st0" d="m121.9 206-7.4-1c-.4 0-.6-.4-.6-.7l1-7.4c0-.4.4-.6.7-.6l7.4 1c.4 0 .6.4.6.7l-1 7.4c0 .4-.3.7-.7.6zm-6.5-2.2 6.1.8.8-6.1-6.1-.8-.8 6.1z"/><path d="M234.3 204.8h-.3c-.2-.1-.4-.3-.4-.5l-1.3-7.8c0-.2 0-.5.2-.6.2-.1.4-.2.6-.1l7.4 2.8c.2.1.4.3.4.5s0 .5-.2.6l-6.1 5s-.2.1-.3.1zm-.6-7.4.9 5.6 4.4-3.6-5.3-2z" style="fill:#cee8ff"/><path class="st0" d="M55.5 122.9h-.3c-.2-.1-.4-.3-.4-.5l-1.3-7.8c0-.2 0-.5.2-.6.2-.1.4-.2.6-.1l7.4 2.8c.2.1.4.3.4.5s0 .5-.2.6l-6.1 5c-.1.1-.2.1-.3.1zm-.6-7.4.9 5.6 4.4-3.6-5.3-2zM203.5 38.7c0 .1-.1.2-.2.3-.2.1-.4.2-.6.1l-7.2-3.3c-.2-.1-.4-.3-.4-.5s.1-.5.3-.6l6.4-4.6c.2-.1.4-.2.6-.1.2.1.4.3.6.5l.7 7.9c-.1.1-.1.2-.2.3zM197 35l5.2 2.4-.5-5.6L197 35z"/><path class="st36" d="M154.4 67.1c-.3-.1-.7.1-.8.4l-.8 2.6-2.6-.8c-.3-.1-.7.1-.8.4-.1.3.1.7.4.8l2.6.8-.8 2.6c-.1.3.1.7.4.8.3.1.7-.1.8-.4l.8-2.6 2.6.8c.3.1.7-.1.8-.4.1-.3-.1-.7-.4-.8l-2.6-.8.8-2.6c.2-.4 0-.7-.4-.8z"/><path class="st0" d="m66.9 53.8-2.4-1.3 1.3-2.4c.2-.3 0-.7-.3-.9-.3-.2-.7 0-.9.3L63.4 52 61 50.7c-.3-.2-.7 0-.9.3s0 .7.3.9l2.4 1.3-1.3 2.4c-.2.3 0 .7.3.9.3.2.7 0 .9-.3l1.3-2.4 2.4 1.3c.3.2.7 0 .9-.3.1-.4-.1-.8-.4-1zM266.5 129.4l-2.5 1.1-1.1-2.5c-.2-.3-.5-.5-.9-.3-.3.2-.5.5-.3.9l1.1 2.5-2.5 1.1c-.3.2-.5.5-.3.9.2.3.5.5.9.3l2.5-1.1 1.1 2.5c.2.3.5.5.9.3.3-.2.5-.5.3-.9l-1.1-2.5 2.5-1.1c.3-.2.5-.5.3-.9s-.6-.5-.9-.3z"/></svg>