<svg version="1.1" id="OBJECTS" xmlns="http://www.w3.org/2000/svg" x="0" y="0" viewBox="0 0 291.4 268.5" style="enable-background:new 0 0 291.4 268.5" xml:space="preserve"><style>.st0{opacity:.17;fill:#606060}.st15{fill:#0023ff}.st17{fill:#7dceff}.st18{fill:#90d8fc}.st23{fill:#f59b7e}.st26{fill:#b0b0b0}</style><ellipse class="st0" cx="56.8" cy="235.8" rx="20.6" ry="3.2"/><linearGradient id="SVGID_1_" gradientUnits="userSpaceOnUse" x1="54.772" y1="182.624" x2="54.772" y2="69.716"><stop offset=".009" style="stop-color:#8339bc"/><stop offset="1" style="stop-color:#817ef9"/></linearGradient><path d="M52.5 109.4c-.4-3-.9-6-1.3-8.9-.4-2.9-1-5.6-1.5-8.3-.9-5.3-2.1-10.2-3.1-14.5-1-4.3-.7-4.4.5-.1 1.2 4.3 2.6 9.1 3.7 14.5.5 2.7 1.2 5.4 1.7 8.3.5 2.9 1 5.8 1.5 8.9 1.8 12.2 3.2 25.9 3.8 40.4.1 2.3.2 4.5.2 6.8.8-.1 1.6-.3 2.5-.4 5.9-1.1 11.1-4.7 15.4-8.9.9-.9 1.8-1.9 2.2-3.1.4-1.2.2-2.7-.8-3.5-1.1-.9-2.7-.7-3.9 0s-2.1 1.9-3.3 2.5c-2.6 1.2-6 1.1-5.9-1.9.1-3.6 1.4-4.3 5.5-5.4 2.7-.7 5.3-1.6 7.2-3.6 1.9-2 3-4.8 2.4-7.5-.3-1.4-1.2-2.8-2.7-3.1-1.9-.3-3.4 1.5-4.7 2.9-1.6 1.8-3.6 3.2-5.8 4.1-1.5.7-3.3 1.1-4.7.3-.9-.5-1.5-1.4-1.8-2.4-1-2.8 0-6.2 2.4-8 2-1.5 4.6-1.9 6.9-2.6 2.5-.7 5-2 6.5-4.1 1.6-2.1 2-5.1.6-7.3-.3-.5-.8-1-1.3-1.2-2-.9-3.9 1.3-5.7 2.7-2.6 2.1-6.3 2.7-9.4 1.4-.9-.4-1.9-1.1-2-2.1-.1-1.2 1.1-2 2.1-2.6 2.1-1.2 6.6-4 8-6 1.4-2 1.9-4.9.5-6.9-.3-.4-.7-.8-1.1-1-2.5-1.1-8 6.6-10.6 5.8-2-.6-2.3-3.2-2.4-5.2-.3-6.9-1.6-16.1-5-22.1-1.1-2-3.2-4.1-5.3-3.3-1.2.5-1.8 1.8-2.2 3.1-2.2 8.3 3.1 16.7 3.8 25.3.2 2.2-.5 5-2.6 5.3-.9.1-1.9-.3-2.6-.8-2.5-1.9-3.8-5.3-6.7-6.5-.4-.2-.9-.3-1.3-.2-.4.1-.8.5-1 .8-2 2.7-1.1 6.7.9 9.4 2.1 2.7 5 4.4 7.6 6.6 2 1.6 3.8 3.5 5.3 5.6 1 1.3 1.8 3.3.6 4.4-.8.8-2.1.6-3.2.2-1.2-.5-2.4-1.2-3.3-2.1-.8-.7-1.4-1.6-2.4-2-1.8-.8-4 .4-4.7 2.2-.7 1.8 0 3.9 1.2 5.4 1.3 1.5 3.1 2.4 4.9 3 1.6.6 3.3 1 4.8 1.8s2.9 2.1 3.3 3.7c.4 1.7-.5 3.7-2.2 4-2.9.7-5.5-3.4-8.2-2.2-.6.3-1 .8-1.3 1.3-1.1 2-.4 4.6 1 6.4s3.5 3 5.7 3.7c3.8 1.4 6.9 0 7.6 1.9 1.5 3.9-3 4.5-5.9 4.2-4.9-.6-7.7 0-7.4 3.2.3 2.8 7.3 6.6 20.7 5-.1-2.3-.2-4.6-.2-6.9-.6-14.5-1.9-28.2-3.5-40.4z" style="fill:url(#SVGID_1_)"/><path d="M58 156.3c-.1-2.2-.1-4.5-.2-6.8-.6-14.5-2-28.1-3.8-40.4-.5-3.1-1-6-1.5-8.9-.5-2.9-1.2-5.6-1.7-8.3-1-5.3-2.5-10.1-3.7-14.5-1.2-4.3-1.5-4.2-.5.1 1 4.4 2.2 9.2 3.1 14.5.5 2.7 1.1 5.4 1.5 8.3.4 2.9.8 5.8 1.3 8.9 1.6 12.2 2.8 25.9 3.5 40.3.1 2.3.2 4.6.2 6.9.5 15.5.4 30.1 0 42.7h1.3c.7-12.5 1-27.1.5-42.8z" style="opacity:.4;fill:#8260de"/><linearGradient id="SVGID_2_" gradientUnits="userSpaceOnUse" x1="57.057" y1="254.37" x2="57.057" y2="191.074"><stop offset=".003" style="stop-color:#0023ff"/><stop offset="1" style="stop-color:#817ef9"/></linearGradient><path style="fill:url(#SVGID_2_)" d="M68.6 235.2H45.5l-3.9-55.1h30.9z"/><ellipse class="st0" cx="181.4" cy="241.9" rx="78.8" ry="7.1"/><linearGradient id="SVGID_3_" gradientUnits="userSpaceOnUse" x1="170.651" y1="211.096" x2="182.357" y2="211.096"><stop offset=".125" style="stop-color:#abdcff"/><stop offset=".998" style="stop-color:#eaefff"/></linearGradient><path style="fill:url(#SVGID_3_)" d="M170.7 182.4h11.7v57.4h-11.7z"/><linearGradient id="SVGID_4_" gradientUnits="userSpaceOnUse" x1="155.955" y1="240.681" x2="197.053" y2="240.681"><stop offset=".125" style="stop-color:#abdcff"/><stop offset=".998" style="stop-color:#eaefff"/></linearGradient><path d="M156.8 239.8h39.4c.5 0 .8.4.8.8v.1c0 .5-.4.8-.8.8h-39.4c-.5 0-.8-.4-.8-.8v-.1c0-.4.3-.8.8-.8z" style="fill:url(#SVGID_4_)"/><linearGradient id="SVGID_5_" gradientUnits="userSpaceOnUse" x1="138.227" y1="148.492" x2="214.781" y2="148.492"><stop offset=".125" style="stop-color:#abdcff"/><stop offset=".998" style="stop-color:#eaefff"/></linearGradient><path d="M176.8 102.2c22.8 0 42.7 68.8 37.1 80.1-8.2 16.4-68.8 17.4-74.7-1.6-4.5-14.3 7-78.5 37.6-78.5z" style="fill:url(#SVGID_5_)"/><linearGradient id="SVGID_6_" gradientUnits="userSpaceOnUse" x1="233.946" y1="150.055" x2="230.743" y2="150.055" gradientTransform="matrix(-1 0 0 1 362.183 0)"><stop offset=".003" style="stop-color:#0023ff"/><stop offset="1" style="stop-color:#817ef9"/></linearGradient><path d="M126.2 154.7h2.7c1 0 1.8-.7 1.9-1.7l.7-5.4c.1-.6-.1-1.1-.5-1.5-.4-.4-.9-.7-1.5-.7h-2.4v.8h2.4c.3 0 .7.1.9.4.2.3.3.6.3.9l-.7 5.4c-.1.6-.6 1-1.2 1h-2.7v.8z" style="fill:url(#SVGID_6_)"/><linearGradient id="SVGID_7_" gradientUnits="userSpaceOnUse" x1="238.945" y1="159.798" x2="238.945" y2="144.295" gradientTransform="matrix(-1 0 0 1 362.183 0)"><stop offset=".003" style="stop-color:#0023ff"/><stop offset="1" style="stop-color:#817ef9"/></linearGradient><path style="fill:url(#SVGID_7_)" d="m127.2 157.6 1.6-14.7h-11.1l1.6 14.7z"/><linearGradient id="SVGID_8_" gradientUnits="userSpaceOnUse" x1="233.521" y1="142.872" x2="244.369" y2="142.872" gradientTransform="matrix(-1 0 0 1 362.183 0)"><stop offset=".084" style="stop-color:#643936"/><stop offset=".169" style="stop-color:#6b3e3a"/><stop offset=".627" style="stop-color:#8f544c"/><stop offset=".872" style="stop-color:#9d5c53"/></linearGradient><ellipse cx="123.2" cy="142.9" rx="5.4" ry="1.1" style="fill:url(#SVGID_8_)"/><linearGradient id="SVGID_9_" gradientUnits="userSpaceOnUse" x1="238.945" y1="143.774" x2="238.945" y2="138.698" gradientTransform="matrix(-1 0 0 1 362.183 0)"><stop offset=".105" style="stop-color:#c7f4f1"/><stop offset=".429" style="stop-color:#e2f9f8"/><stop offset=".759" style="stop-color:#f7fdfd"/><stop offset=".976" style="stop-color:#fff"/></linearGradient><path d="M117.7 142.9c0-.8 2.8-1.3 5.5-1.3s5.5.4 5.5 1.3c0 .8-2.8 1.3-5.5 1.3s-5.5-.5-5.5-1.3zm.2 0c0 .5 2.2 1 5.3 1 3.1 0 5.3-.5 5.3-1s-2.2-1-5.3-1c-3.1-.1-5.3.5-5.3 1z" style="fill:url(#SVGID_9_)"/><linearGradient id="SVGID_10_" gradientUnits="userSpaceOnUse" x1="235.122" y1="142.899" x2="242.379" y2="142.899" gradientTransform="matrix(-1 0 0 1 362.183 0)"><stop offset="0" style="stop-color:#feb"/><stop offset=".047" style="stop-color:#ffefc0"/><stop offset=".441" style="stop-color:#fff8e2"/><stop offset=".764" style="stop-color:#fffdf7"/><stop offset=".976" style="stop-color:#fff"/></linearGradient><path d="m119.9 142.9.1-.1H123.6c.5 0 .5.1 0 .1s-1.1.1-1.7.1h-1.2 5.1c.2 0 .3 0 .5-.1h.2H126.2c-.3 0-.6-.1-.9-.1-.6 0-1.1-.1-1.7-.1-1.1 0-2 0-2.8-.1-.5 0-.5-.1 0-.1.8-.1 1.8-.1 2.8-.1h1.7c.3 0 .6 0 .9.1h.5l.3.3v.2c0 .1 0 .1-.1.1-.1.1-.3.1-.4.2-.1 0-.2 0-.3.1-.2 0-.4 0-.5.1h-3.5c-.4 0-.8 0-1.2-.1-.4 0-.8-.1-1.1-.2 0 0-.1 0-.1-.1 0 0-.1 0-.1-.1.1 0 .1-.1.2-.1z" style="opacity:.79;fill:url(#SVGID_10_)"/><linearGradient id="SVGID_11_" gradientUnits="userSpaceOnUse" x1="123.897" y1="143.802" x2="114.708" y2="120.088"><stop offset="0" style="stop-color:#feb"/><stop offset=".044" style="stop-color:#ffeec0"/><stop offset=".256" style="stop-color:#fff5d8"/><stop offset=".507" style="stop-color:#fffaee"/><stop offset=".751" style="stop-color:#fffefb"/><stop offset=".976" style="stop-color:#fff"/></linearGradient><path d="M118.2 133.9c.6.2 1.2.2 1.7.7.4.4.5 1.3-.1 1.6-.2.1-.4.1-.5.2-.5.3-.2 1.1.3 1.4.5.3 1.1.3 1.6.4.5.2 1.1.6.9 1.2-.1.3-.5.6-.4.9.3.8 1.5.9 1.2 2.6 0 0 1.2-.6.5-1.8-.2-.4.6-.1.8-.2.3-.2.2-.7 0-1-.2-.3-.5-.5-.8-.8-.2-.3-.4-.6-.3-1 .2-.5 1-.5 1.5-.7.7-.3 1-1.1 1-1.9 0-1.1-.5-2.4-1.6-2.7h-.4c-.2.1-.3.2-.4.3-.4.4-1.1.7-1.5.3-.3-.3-.5-.8-.3-1.1.6-.9 1.3-2.3.4-3.4-.9-1.2-3.4.2-3.8-.9-.6-1.9-1.9-3.1-3.3-2.5-1.9.7-3.6 6.5 3.5 8.4z" style="fill:url(#SVGID_11_)"/><linearGradient id="SVGID_12_" gradientUnits="userSpaceOnUse" x1="180.476" y1="173.094" x2="219.468" y2="218.085"><stop offset=".003" style="stop-color:#0023ff"/><stop offset="1" style="stop-color:#817ef9"/></linearGradient><path d="M216.3 241.6s-1.5-27.8-13.6-43c-8-10.1-35.8-26.5-35.8-26.5s16.9-4.3 25.5-3.9c0 0 14.6 5.7 23.3 19 7.8 12.1 8.1 49.9 8.1 49.9s5.5 1.3 9.5 4.6h-17z" style="fill:url(#SVGID_12_)"/><linearGradient id="SVGID_13_" gradientUnits="userSpaceOnUse" x1="179.725" y1="237.956" x2="170.788" y2="170.188"><stop offset=".003" style="stop-color:#0023ff"/><stop offset="1" style="stop-color:#817ef9"/></linearGradient><path d="M162.3 239.9s22.7-41.3 8.3-48.9c-15.1-8-11.3-18.4-11.3-18.4l20.9-4.5s10.9 15.9 12 26.2c1.9 16.5-20 43.1-20 43.1s4.5.7 8 4.2H162s-.3-.9.3-1.7z" style="fill:url(#SVGID_13_)"/><path class="st15" d="M161.3 102.2c1.5 1.3 2.4 3.1 2.9 5 .3 1.1.4 2.3.7 3.4.5 1.6 1.4 3.2 1.2 4.8-.3 2.7-3.4 4.3-3.9 6.9-.2 1.1.1 2.2.3 3.3.4 2.9-.4 5.8-2.1 8.2.6 2.3 1.8 5.3.4 7.3-1.2 1.8-3.5 2.5-4.7 4.3-1.6 2.5-.2 5.9-.7 8.8-.3 1.9-1.4 3.8-3 4.9-.6.4-1.3.8-2.1.8-.7 0-1.3-.2-1.9-.5-2.1-1-3.6-3.1-3.8-5.4-.1-.7-.1-1.5-.3-2.1-.8-2.2-3.7-2.8-4.9-4.9-1.7-3 1.4-6.8.6-10.2-.8-3.4-5.2-4.9-6.3-8.3-1-3.3 1.7-6.8 1.1-10.3-.5-2.6-2.9-4.6-3-7.2-.1-1.1.3-2.1.8-3.1.9-1.7 2.3-3.1 4-4 2.9-1.5 2.6-6.7 6.9-7.8 4.3-1.1 6.1 3.2 10.7 3.1 4.2.1 7.1 3 7.1 3z"/><linearGradient id="SVGID_14_" gradientUnits="userSpaceOnUse" x1="576.719" y1="217.597" x2="576.719" y2="172.626" gradientTransform="rotate(-15.888 219.242 1614.676)"><stop offset=".003" style="stop-color:#0023ff"/><stop offset="1" style="stop-color:#817ef9"/></linearGradient><path d="m217.4 155.4-5.3-.1c-8.9-12.8-26.8-11.4-26.8-11.4s3 3 2.8 9.6c-.2 9.8 4.2 14.7 4.2 14.7s-16.2 9.1-33.1 4.5c0 0-.4-6.8-3.1-11.9-2-3.6-2.1-7.3-2.1-7.3-11.1 4.8-16.9 4.9-19.3 2.6-6.3-6 8.6-28 8.6-28l4.4 3.1c-1.7 3-4.6 14.4-4.6 14.4s8.1-7.8 12.9-10.4c4.6-2.6 12.2-4.1 15.7-4.6s18.6-2 31.5 7c13.2 9.3 14.2 17.8 14.2 17.8z" style="fill:url(#SVGID_14_)"/><path class="st17" d="M159.4 113.6s-.8-2.3 1.2-1.9c2 .4 1.7 4.8.3 4.5l-1.5-2.6z"/><path class="st18" d="m171.7 130.7-10.9-9.4s-6 2.7-7.6 8.1l2.9 5.9s3.3 6.9 10.5 3.7c5.5-2.5 5.1-8.3 5.1-8.3z"/><path class="st17" d="M155.2 106.9s14.5 15.6 5.4 22.8c-9.3 7.5-21.6-9.9-21.6-9.9s4.7-8.9 16.2-12.9z"/><path d="m159.3 123.4-4.5 3.6s-1.5-1.2.9-3.3c1.9-1.6 3.6-.3 3.6-.3z" style="fill:#fff"/><path class="st18" d="M151.7 118.7c-.3.2 1.5 4.2 1.8 4.2.3 0 1.9-1.4 1.9-1.7 0-.3-3.4-2.7-3.7-2.5z"/><path class="st15" d="M148.1 118.4s-2.4 1.1-2.4 3.4c0 0 1.2-2.3 3.1-2.9l-.7-.5zM152.1 115.4s1.3-2.3 3.6-2.1c0 0-2.4 1-3.1 2.8l-.5-.7z"/><path class="st15" d="M143.5 124.9c.6.1 1-.8 1-1.4-.1-.6-.5-1.2-.8-1.7-.3-.5-.7-1.2-.5-1.8.2-.7.8-1.2 1.5-1.5.7-.3 1.4-.5 1.9-1 .8-.7 1-1.8 1-2.8 0-.3 0-.6.2-.9.2-.3.5-.4.9-.5 1.6-.4 3.3-.9 4.5-2.1.5-.5.9-1.1 1.5-1.5.6-.4 1.6-.4 1.9.3.3.4.1 1 .2 1.5.1.6.7 1.1 1.3 1.2.6.1 1.3-.3 1.5-.8 0 0 1.2-1.5.1-3.2-1.1-1.7-3.9-3.7-3.9-3.7-1.7.1-14.8 7.1-18 14.5-.1 0 2.9 4.9 5.7 5.4z"/><path class="st17" d="M143.3 128.1s-3.1-2.1-2.3-5.2c.5-1.7 4.5 3.2 7.3 5.8.4.4-.6 2.5-.6 2.5l-4.4-3.1zM233.2 241.6c-4.1-3.3-9.5-4.6-9.5-4.6s-.1-7.6-.8-17.1h-10.3c3.1 11.5 3.7 21.7 3.7 21.7h16.9zM184.2 219.9h-12.9c-3.8 10.7-9 20.1-9 20.1-.6.8-.3 1.6-.3 1.6h18.3c-3.5-3.5-8-4.2-8-4.2s6.3-7.8 11.9-17.5z"/><linearGradient id="SVGID_15_" gradientUnits="userSpaceOnUse" x1="215.935" y1="239.596" x2="233.243" y2="239.596"><stop offset=".003" style="stop-color:#0023ff"/><stop offset="1" style="stop-color:#817ef9"/></linearGradient><path d="M233.2 241.6c-2.4-2-5.4-3.3-7.4-4 0 0-1.5 1.7-4.9 1.6-3.3-.1-5-1.6-5-1.6.3 2.5.4 4 .4 4h16.9z" style="fill:url(#SVGID_15_)"/><linearGradient id="SVGID_16_" gradientUnits="userSpaceOnUse" x1="161.899" y1="238.904" x2="180.232" y2="238.904"><stop offset=".003" style="stop-color:#0023ff"/><stop offset="1" style="stop-color:#817ef9"/></linearGradient><path d="M168 239c-3.6-.8-3.8-2.7-3.8-2.7h-.1c-1.2 2.3-1.9 3.7-1.9 3.7-.6.8-.3 1.6-.3 1.6h18.3c-2.1-2.2-4.7-3.3-6.3-3.8l-.2.1s-2.1 1.9-5.7 1.1z" style="fill:url(#SVGID_16_)"/><path style="fill:#b06e53" d="M113.6 157.6h135.1v4.6H113.6z"/><path class="st23" d="M116.1 241.6h-3.5l6.4-79.4h3.5zM246.2 241.6h3.4l-6.4-79.4h-3.4z"/><path d="M215.6 155.4h-21.4c-1.1 0-2 .9-2 2v.2h23.4v-2.2z" style="fill:#787878"/><path style="fill:#505050" d="M239.8 136.5h-26.5l-4 21.1h26.5z"/><path class="st26" d="m213.3 136.5-1 .9-3.8 20.2h.8z"/><ellipse transform="rotate(54.899 224.578 147.03)" class="st26" cx="224.6" cy="147" rx="2.1" ry="2.4"/><linearGradient id="SVGID_17_" gradientUnits="userSpaceOnUse" x1="54.613" y1="-69.383" x2="54.613" y2="57.348"><stop offset="0" style="stop-color:#ffd125"/><stop offset="1" style="stop-color:#fff576"/></linearGradient><path style="fill:url(#SVGID_17_)" d="M54.1-59.2h1V42h-1z"/><linearGradient id="SVGID_18_" gradientUnits="userSpaceOnUse" x1="54.613" y1="26.223" x2="54.613" y2="52.436"><stop offset="0" style="stop-color:#ffd125"/><stop offset="1" style="stop-color:#fff576"/></linearGradient><path d="M68 50.6c0-7.4-6-13.3-13.3-13.3-7.4 0-13.3 6-13.3 13.3H68z" style="fill:url(#SVGID_18_)"/><linearGradient id="SVGID_19_" gradientUnits="userSpaceOnUse" x1="242.28" y1="-69.383" x2="242.28" y2="57.348"><stop offset="0" style="stop-color:#ffd125"/><stop offset="1" style="stop-color:#fff576"/></linearGradient><path style="fill:url(#SVGID_19_)" d="M241.8-59.2h1V42h-1z"/><linearGradient id="SVGID_20_" gradientUnits="userSpaceOnUse" x1="242.28" y1="26.223" x2="242.28" y2="52.436"><stop offset="0" style="stop-color:#ffd125"/><stop offset="1" style="stop-color:#fff576"/></linearGradient><path d="M255.6 50.6c0-7.4-6-13.3-13.3-13.3-7.4 0-13.3 6-13.3 13.3h26.6z" style="fill:url(#SVGID_20_)"/><path transform="rotate(14.234 155.06 116.617)" class="st15" d="M155 115.4h.2v2.5h-.2z"/><path transform="rotate(14.234 155.06 116.617)" class="st15" d="M153.8 116.5h2.5v.2h-2.5z"/><path transform="rotate(14.234 148.679 121.3)" class="st15" d="M148.6 120.1h.2v2.5h-.2z"/><path transform="rotate(14.234 148.679 121.3)" class="st15" d="M147.4 121.2h2.5v.2h-2.5z"/></svg>