<svg version="1.1" id="Calque_1" xmlns="http://www.w3.org/2000/svg" x="0" y="0" viewBox="0 0 200 200" style="enable-background:new 0 0 200 200" xml:space="preserve"><style>.st2{fill:#fff}.st3{fill:#3e8bcb}.st5{fill:#0d58a1}</style><path id="XMLID_24_" d="m166.1 92.8-12.7 13.7c-5.8 6.3-15.7 6.7-22 .9l-.1-.1c-6.3-5.8-6.7-15.7-.9-22l12.7-13.7c5.8-6.3 5.4-16.2-.9-22l-.1-.1c-6.3-5.8-16.2-5.4-22 .9l-1.1 1.2c-5.8 6.3-15.7 6.7-22 .9l-.1-.1c-6.3-5.8-6.7-15.7-.9-22l1.1-1.2c5.8-6.3 5.4-16.2-.9-22-6.3-5.8-16.2-5.4-22 .9L10.9 76.5c-5.8 6.3-5.4 16.2.9 22 6.3 5.8 16.2 5.4 22-.9l12.7-13.7c5.8-6.3 15.7-6.7 22-.9l.1.1c6.3 5.8 6.7 15.7.9 22l-12.7 13.7c-5.8 6.3-5.4 16.2.9 22l.1.1c6.3 5.8 16.2 5.4 22-.9l5.9-6.4c5.8-6.3 15.7-6.7 22-.9l.1.1c6.3 5.8 6.7 15.7.9 22l-5.9 6.4c-5.8 6.3-5.4 16.2.9 22l.1.1c6.3 5.8 16.2 5.4 22-.9l63.2-68.5c5.8-6.3 5.4-16.2-.9-22l-.1-.1c-6.2-5.7-16.1-5.3-21.9 1z" style="opacity:.15;fill:#3e7388"/><g id="XMLID_5_"><path id="XMLID_47_" d="M91 96.2c-10.3 0-10.3-14.9 0-14.9 10.3.1 10.3 14.9 0 14.9zM114.1 82l-21.8 33.2h-6.7L107.4 82h6.7zM91 91.9c4.1 0 4.1-6.2 0-6.2s-4.1 6.2 0 6.2zm18 23.6c-10.3 0-10.3-14.9 0-14.9 10.2 0 10.2 14.9 0 14.9zm0-4.4c4.1 0 4.1-6.2 0-6.2s-4.1 6.2 0 6.2z" style="fill:#2c62ac"/><path id="XMLID_46_" class="st2" d="m133 105.9 17 4.6c.7-3.5 1.1-7 1.1-10.5 0-4.5-.6-8.9-1.7-13.2-1.1-4.3-2.9-8.4-5.1-12.3-2.3-3.9-5-7.5-8.1-10.6-3.1-3.1-6.7-5.9-10.6-8.1-3.9-2.2-8-4-12.3-5.1-3.4-.9-6.9-1.5-10.4-1.7v17.6c2 .2 4 .5 5.9 1 2.8.8 5.5 1.9 8.1 3.4 2.6 1.5 4.9 3.3 6.9 5.3 2.1 2.1 3.8 4.4 5.3 6.9s2.6 5.3 3.4 8.1c.8 2.8 1.1 5.7 1.1 8.7-.1 2-.3 4-.6 5.9z"/><path id="XMLID_45_" class="st3" d="M115.4 126.6c-2.3 1.3-4.8 2.4-7.4 3.1-2.5.7-5.2 1-8 1s-5.4-.4-8-1c-2.6-.7-5.1-1.7-7.4-3.1-2.3-1.3-4.5-3-6.4-4.9-1.9-1.9-3.5-4-4.9-6.4-1.3-2.3-2.4-4.8-3.1-7.4l-22.4 6c1.2 4.6 3.1 9 5.4 13 2.4 4.1 5.2 7.8 8.6 11.2 3.3 3.3 7.1 6.2 11.2 8.6 4 2.3 8.4 4.2 13 5.4 4.4 1.2 9.1 1.8 13.9 1.8 4.8 0 9.5-.6 13.9-1.8 4.6-1.2 9-3.1 13-5.4l-11.4-20.1z"/><path id="XMLID_44_" d="M86.1 47.9c-4.6 1.2-9 3.1-13 5.4-4.1 2.4-7.8 5.2-11.2 8.6-3.3 3.3-6.2 7.1-8.6 11.2-2.3 4-4.2 8.4-5.4 13l22.4 6c.7-2.6 1.7-5.1 3.1-7.4 1.3-2.3 3-4.5 4.9-6.4 1.9-1.9 4-3.5 6.4-4.9 2.3-1.3 4.8-2.4 7.4-3.1 2.5-.7 5.2-1 8-1V46.1c-4.9 0-9.6.7-14 1.8z" style="fill:#86d0f5"/><path id="XMLID_43_" class="st3" d="M154.2 103.5c-.1.4-.2.8-.3 1.3h-23.1c.1-1.6.2-3.1.3-4.8h23.1v3.5z"/><path id="XMLID_42_" class="st3" d="M100.4 69.4v-1.5c.4 0 .9-.1 1.3-.1h40.5c.9 0 1.5.3 1.9 1 .7 1.2 1.6 2.4 2.5 3.7-.6 0-1 .1-1.3.1h-30.5c-.4 0-.9 0-1.3-.1-2.1-.7-4.2-1.6-6.3-2.1-2.2-.6-4.5-.7-6.8-1z"/><path id="XMLID_41_" class="st3" d="M140.3 64.6h-39.9v-4.8h34.3c.9 0 1.6.2 2.3.9 1.2 1.2 2.5 2.3 3.8 3.5-.2.1-.4.3-.5.4z"/><path id="XMLID_40_" class="st3" d="M150.5 80.7h-25.6c-.5 0-1.2-.3-1.6-.7-1.3-1.3-2.5-2.8-3.7-4.2-.1.1-.2.1-.3.2.3 0 .6-.1 1-.1h26.9c.9 0 1.4.2 1.7 1.1.4 1.2 1 2.4 1.6 3.7z"/><path id="XMLID_39_" class="st3" d="M100.4 56.5v-4.7h22.2c.8 0 1.7.2 2.4.6 2.2 1.2 4.4 2.5 6.4 4.1h-31z"/><path id="XMLID_38_" class="st3" d="M126.3 83.9h24.1c.9 0 1.4.3 1.6 1.2.2 1.2.6 2.3.9 3.6-.5 0-.9.1-1.3.1h-21.7c-1 0-1.4-.3-1.8-1.2-.4-1.2-1-2.3-1.8-3.7z"/><path id="XMLID_37_" class="st3" d="M129.9 92h23.7c.2 1.5.3 3.1.5 4.7-.6 0-1 .1-1.5.1h-20.5c-1 0-1.5-.2-1.5-1.3-.1-1.1-.4-2.2-.7-3.5z"/><path id="XMLID_36_" class="st3" d="M153.6 108.1c-.3 1.6-.6 3.1-.9 4.9-2.5-.2-5-.2-7.3-.7-4.8-1.1-9.5-2.5-14.2-3.7-.3-.1-.7-.2-1-.5h23.4z"/><path id="XMLID_35_" class="st3" d="M100.4 48.5v-2c4.9-.2 9.6.7 14.3 2h-14.3z"/><path id="XMLID_32_" class="st5" d="M72.3 95.5 44.5 88l.7-2.7c1.3-4.8 3.2-9.4 5.7-13.7 2.5-4.3 5.5-8.3 9-11.7 3.5-3.5 7.4-6.5 11.7-9 4.3-2.5 8.9-4.4 13.7-5.7 4.8-1.3 9.7-1.9 14.7-1.9h2.8V72H100c-2.4 0-4.9.3-7.2 1-2.3.6-4.6 1.6-6.7 2.8-2.1 1.2-4.1 2.7-5.8 4.4-1.8 1.8-3.3 3.7-4.5 5.8-1.2 2.1-2.2 4.4-2.8 6.7l-.7 2.8zM51.4 84.1l17 4.6c.7-1.9 1.5-3.7 2.5-5.4 1.5-2.6 3.3-4.9 5.3-6.9 2.1-2.1 4.4-3.8 6.9-5.3s5.3-2.6 8.1-3.4c1.9-.5 3.9-.9 5.9-1V49c-3.5.2-7 .7-10.4 1.7-4.3 1.1-8.4 2.9-12.3 5.1-3.9 2.3-7.5 5-10.6 8.1-3.1 3.1-5.9 6.7-8.1 10.6-1.7 3-3.2 6.3-4.3 9.6z"/><path id="XMLID_29_" class="st5" d="m154 117.4-27.8-7.4.7-2.7c.6-2.4 1-4.8 1-7.2 0-2.4-.3-4.9-1-7.2-.6-2.3-1.6-4.6-2.8-6.7-1.2-2.1-2.7-4.1-4.4-5.8-1.7-1.7-3.7-3.2-5.8-4.4-2.1-1.2-4.4-2.2-6.7-2.8-2.4-.6-4.8-1-7.2-1h-2.8V43.3h2.8c4.9 0 9.9.6 14.7 1.9 4.8 1.3 9.4 3.2 13.7 5.7 4.3 2.5 8.3 5.5 11.7 9 3.5 3.5 6.5 7.4 9 11.7 2.5 4.3 4.4 8.9 5.7 13.7 1.3 4.8 1.9 9.7 1.9 14.7 0 4.9-.6 9.9-1.9 14.7l-.8 2.7zm-21-11.5 17 4.6c.7-3.5 1.1-7 1.1-10.5 0-4.5-.6-8.9-1.7-13.2-1.1-4.3-2.9-8.4-5.1-12.3-2.3-3.9-5-7.5-8.1-10.6-3.1-3.1-6.7-5.9-10.6-8.1-3.9-2.2-8-4-12.3-5.1-3.4-.9-6.9-1.5-10.4-1.7v17.6c2 .2 4 .5 5.9 1 2.8.8 5.5 1.9 8.1 3.4 2.6 1.5 4.9 3.3 6.9 5.3 2.1 2.1 3.8 4.4 5.3 6.9s2.6 5.3 3.4 8.1c.8 2.8 1.1 5.7 1.1 8.7-.1 2-.3 4-.6 5.9z"/><path id="XMLID_26_" class="st5" d="m125.9 150.5-14.4-24.9 2.4-1.4c2.1-1.2 4.1-2.7 5.8-4.4 1.7-1.7 3.2-3.7 4.4-5.8 1.2-2.1 2.2-4.4 2.8-6.7l.7-2.7 27.8 7.4-.7 2.7a56.7 56.7 0 0 1-5.7 13.7c-2.5 4.3-5.5 8.3-9 11.7-3.5 3.5-7.4 6.5-11.7 9l-2.4 1.4zm-6.8-23 8.8 15.2c3-1.9 5.7-4.2 8.2-6.6 3.1-3.1 5.9-6.7 8.1-10.6 1.8-3.1 3.2-6.3 4.3-9.6l-17-4.6c-.7 1.9-1.5 3.7-2.5 5.4-1.5 2.5-3.3 4.9-5.3 6.9-1.4 1.5-2.9 2.8-4.6 3.9z"/><path id="XMLID_25_" class="st2" d="m119.1 127.5 8.8 15.2c3-1.9 5.7-4.2 8.2-6.6 3.1-3.1 5.9-6.7 8.1-10.6 1.8-3.1 3.2-6.3 4.3-9.6l-17-4.6c-.7 1.9-1.5 3.7-2.5 5.4-1.5 2.5-3.3 4.9-5.3 6.9-1.4 1.5-2.9 2.8-4.6 3.9z"/><path id="XMLID_23_" class="st5" d="m46 117.4-.7-2.7c-1.3-4.8-1.9-9.7-1.9-14.7 0-4.9.6-9.9 1.9-14.7l.7-2.7L73.8 90l-.8 2.8c-.6 2.4-1 4.8-1 7.2 0 2.4.3 4.9 1 7.2l.7 2.7-27.7 7.5z"/><path id="XMLID_22_" class="st5" d="m46 117.4-.7-2.7c-1.3-4.8-1.9-9.7-1.9-14.7 0-4.9.6-9.9 1.9-14.7l.7-2.7L73.8 90l-.8 2.8c-.6 2.4-1 4.8-1 7.2 0 2.4.3 4.9 1 7.2l.7 2.7-27.7 7.5z"/><path id="XMLID_21_" class="st2" d="M50 89.5c-.7 3.5-1.1 7-1.1 10.5s.4 7.1 1.1 10.5l17-4.6c-.4-2-.5-4-.5-5.9 0-2 .2-4 .5-5.9l-17-4.6z"/><path id="XMLID_18_" class="st5" d="M100 156.7c-4.9 0-9.9-.6-14.7-1.9a56.7 56.7 0 0 1-13.7-5.7c-4.3-2.5-8.3-5.5-11.7-9-3.5-3.5-6.5-7.4-9-11.7a56.7 56.7 0 0 1-5.7-13.7l-.7-2.7 27.8-7.4.7 2.7c.6 2.3 1.6 4.6 2.8 6.7 1.2 2.1 2.7 4.1 4.4 5.8 1.7 1.7 3.7 3.2 5.8 4.4 2.1 1.2 4.4 2.2 6.7 2.8 4.7 1.3 9.7 1.3 14.5 0 2.3-.6 4.6-1.6 6.7-2.8l2.4-1.4 14.4 24.9-2.4 1.4a56.7 56.7 0 0 1-13.7 5.7c-4.7 1.2-9.7 1.9-14.6 1.9zm-48.6-40.8c1.1 3.3 2.5 6.6 4.3 9.6 2.3 3.9 5 7.5 8.1 10.6 3.1 3.1 6.7 5.9 10.6 8.1 3.9 2.2 8 4 12.3 5.1 8.6 2.3 17.8 2.3 26.5 0 3.4-.9 6.7-2.2 9.9-3.8l-8.8-15.2c-1.8.9-3.7 1.5-5.6 2.1-5.7 1.5-11.7 1.5-17.3 0-2.8-.8-5.5-1.9-8.1-3.4-2.5-1.5-4.9-3.3-6.9-5.3-2.1-2.1-3.8-4.4-5.3-6.9-1-1.7-1.8-3.5-2.5-5.4l-17.2 4.5z"/></g></svg>