<svg version="1.1" id="Calque_1" xmlns="http://www.w3.org/2000/svg" x="0" y="0" viewBox="0 0 200 200" style="enable-background:new 0 0 200 200" xml:space="preserve"><style>.st4{fill:#0d58a1}</style><path id="XMLID_24_" d="m166.1 92.8-12.7 13.7c-5.8 6.3-15.7 6.7-22 .9l-.1-.1c-6.3-5.8-6.7-15.7-.9-22l12.7-13.7c5.8-6.3 5.4-16.2-.9-22l-.1-.1c-6.3-5.8-16.2-5.4-22 .9l-1.1 1.2c-5.8 6.3-15.7 6.7-22 .9l-.1-.1c-6.3-5.8-6.7-15.7-.9-22l1.1-1.2c5.8-6.3 5.4-16.2-.9-22-6.3-5.8-16.2-5.4-22 .9L10.9 76.5c-5.8 6.3-5.4 16.2.9 22 6.3 5.8 16.2 5.4 22-.9l12.7-13.7c5.8-6.3 15.7-6.7 22-.9l.1.1c6.3 5.8 6.7 15.7.9 22l-12.7 13.7c-5.8 6.3-5.4 16.2.9 22l.1.1c6.3 5.8 16.2 5.4 22-.9l5.9-6.4c5.8-6.3 15.7-6.7 22-.9l.1.1c6.3 5.8 6.7 15.7.9 22l-5.9 6.4c-5.8 6.3-5.4 16.2.9 22l.1.1c6.3 5.8 16.2 5.4 22-.9l63.2-68.5c5.8-6.3 5.4-16.2-.9-22l-.1-.1c-6.2-5.7-16.1-5.3-21.9 1z" style="opacity:.15;fill:#3e7388"/><g id="XMLID_1_"><path id="XMLID_15_" d="M100 49.8c-29.9 0-54.1 24.2-54.1 54.1S70.1 158 100 158c29.9 0 54.1-24.2 54.1-54.1S129.9 49.8 100 49.8zm0 94.5c-22.4 0-40.5-18.1-40.5-40.5S77.6 63.4 100 63.4s40.5 18.1 40.5 40.5-18.1 40.4-40.5 40.4z" style="fill:#86d0f5"/><circle id="XMLID_14_" cx="100" cy="103.9" r="40.5" style="fill:#fff"/><path id="XMLID_13_" d="M100 63.4c-2.2 0-4.3.2-6.4.5 19.3 3.1 34.1 19.8 34.1 40s-14.8 36.9-34.1 40c2.1.3 4.2.5 6.4.5 22.4 0 40.5-18.1 40.5-40.5S122.4 63.4 100 63.4z" style="fill:#57aadf"/><path id="XMLID_8_" class="st4" d="M100 160.6c-31.3 0-56.7-25.4-56.7-56.7 0-31.3 25.4-56.7 56.7-56.7 31.3 0 56.7 25.4 56.7 56.7 0 31.2-25.4 56.7-56.7 56.7zm0-108.2c-28.4 0-51.5 23.1-51.5 51.5s23.1 51.5 51.5 51.5 51.5-23.1 51.5-51.5-23.1-51.5-51.5-51.5zm0 94.5c-23.8 0-43.1-19.3-43.1-43.1S76.2 60.7 100 60.7s43.1 19.3 43.1 43.1-19.3 43.1-43.1 43.1zm0-80.9c-20.9 0-37.9 17-37.9 37.9s17 37.9 37.9 37.9 37.9-17 37.9-37.9S120.9 66 100 66z"/><path id="XMLID_4_" class="st4" d="M100 113.6c-4.7 0-8.6-3.9-8.6-8.6 0-4.7 3.9-8.6 8.6-8.6 4.7 0 8.6 3.9 8.6 8.6 0 4.7-3.9 8.6-8.6 8.6zm0-12.1c-1.9 0-3.4 1.5-3.4 3.4s1.5 3.4 3.4 3.4 3.4-1.5 3.4-3.4c0-1.8-1.5-3.4-3.4-3.4z"/><path id="XMLID_3_" class="st4" d="M100 101c-1.4 0-2.6-1.2-2.6-2.6V77.6c0-1.4 1.2-2.6 2.6-2.6 1.4 0 2.6 1.2 2.6 2.6v20.8c0 1.4-1.2 2.6-2.6 2.6z"/><path id="XMLID_2_" class="st4" d="M88.1 121.9c-.7 0-1.3-.3-1.8-.8-1-1-1-2.7 0-3.7l8.9-8.9c1-1 2.7-1 3.7 0s1 2.7 0 3.7l-8.9 8.9c-.6.5-1.2.8-1.9.8z"/></g></svg>