<svg version="1.1" id="Calque_1" xmlns="http://www.w3.org/2000/svg" x="0" y="0" viewBox="0 0 200 200" style="enable-background:new 0 0 200 200" xml:space="preserve"><style>.st1{fill:#fff}.st3{fill:#57aadf}.st4{fill:#0d58a1}</style><path id="XMLID_24_" d="m166.1 92.8-12.7 13.7c-5.8 6.3-15.7 6.7-22 .9l-.1-.1c-6.3-5.8-6.7-15.7-.9-22l12.7-13.7c5.8-6.3 5.4-16.2-.9-22l-.1-.1c-6.3-5.8-16.2-5.4-22 .9l-1.1 1.2c-5.8 6.3-15.7 6.7-22 .9l-.1-.1c-6.3-5.8-6.7-15.7-.9-22l1.1-1.2c5.8-6.3 5.4-16.2-.9-22-6.3-5.8-16.2-5.4-22 .9L10.9 76.5c-5.8 6.3-5.4 16.2.9 22 6.3 5.8 16.2 5.4 22-.9l12.7-13.7c5.8-6.3 15.7-6.7 22-.9l.1.1c6.3 5.8 6.7 15.7.9 22l-12.7 13.7c-5.8 6.3-5.4 16.2.9 22l.1.1c6.3 5.8 16.2 5.4 22-.9l5.9-6.4c5.8-6.3 15.7-6.7 22-.9l.1.1c6.3 5.8 6.7 15.7.9 22l-5.9 6.4c-5.8 6.3-5.4 16.2.9 22l.1.1c6.3 5.8 16.2 5.4 22-.9l63.2-68.5c5.8-6.3 5.4-16.2-.9-22l-.1-.1c-6.2-5.7-16.1-5.3-21.9 1z" style="opacity:.15;fill:#3e7388"/><g id="XMLID_17_"><path id="XMLID_16_" class="st1" d="M152 42H48c-4.6 0-8.4 3.8-8.4 8.4V121c0 4.6 3.8 8.4 8.4 8.4h104c4.6 0 8.4-3.8 8.4-8.4V50.4c0-4.6-3.8-8.4-8.4-8.4z"/><path id="XMLID_15_" d="M40.3 104.8v17.6c0 3.1 2.5 5.7 5.7 5.7h108c3.1 0 5.7-2.5 5.7-5.7v-17.6H40.3z" style="fill:#86d0f5"/><path id="XMLID_14_" class="st3" d="M147.5 104.8v17.6c0 3.1-2.5 5.7-5.7 5.7H154c3.1 0 5.7-2.5 5.7-5.7v-17.6h-12.2z"/><path class="st4" d="M154 131.2H46c-4.8 0-8.7-3.9-8.7-8.7V49c0-4.8 3.9-8.7 8.7-8.7h108c4.8 0 8.7 3.9 8.7 8.7v73.4c.1 4.9-3.8 8.8-8.7 8.8zM46 46.4c-1.5 0-2.6 1.2-2.6 2.6v73.4c0 1.5 1.2 2.6 2.6 2.6h108c1.5 0 2.6-1.2 2.6-2.6V49c0-1.5-1.2-2.6-2.6-2.6H46z"/><path class="st4" d="M154 131.2H46c-4.8 0-8.7-3.9-8.7-8.7v-20.7h125.5v20.7c0 4.8-3.9 8.7-8.8 8.7zM43.3 107.9v14.6c0 1.5 1.2 2.6 2.6 2.6H154c1.5 0 2.6-1.2 2.6-2.6v-14.6H43.3z"/><path class="st4" d="M126.3 161.5H73.7c-4.8 0-8.6-3.9-8.6-8.6v-.6c0-4 2.8-7.5 6.8-8.4 7.7-1.9 10.5-11.1 11.4-16.4l.4-2.5h32.5l.4 2.5c.9 5.3 3.7 14.6 11.4 16.4 4 1 6.8 4.4 6.8 8.4v.6c.1 4.7-3.8 8.6-8.5 8.6zM88.8 131c-1.6 6.9-5.6 16.4-15.5 18.8-1.3.3-2.1 1.3-2.1 2.5v.6c0 1.4 1.1 2.5 2.5 2.5h52.6c1.4 0 2.5-1.1 2.5-2.5v-.6c0-1.2-.9-2.2-2.1-2.5-9.8-2.4-13.8-11.9-15.5-18.8H88.8z"/><path id="XMLID_7_" class="st1" d="M88.8 131c-1.6 6.9-5.6 16.4-15.5 18.8-1.3.3-2.1 1.3-2.1 2.5v.6c0 1.4 1.1 2.5 2.5 2.5h52.6c1.4 0 2.5-1.1 2.5-2.5v-.6c0-1.2-.9-2.2-2.1-2.5-9.8-2.4-13.8-11.9-15.5-18.8H88.8z"/><path id="XMLID_6_" class="st3" d="M73.7 55.8h59.4v36.3H73.7z"/><circle id="XMLID_4_" class="st1" cx="128.9" cy="55.8" r="17.3"/><circle id="XMLID_3_" class="st3" cx="128.9" cy="55.8" r="12"/><path class="st1" d="M125.5 60.3h2.1v-9.4h-2.2v-2.4h4.8v11.8h1.9v2.2h-6.7v-2.2z"/><circle id="XMLID_1_" cx="102.3" cy="115.9" r="6.3" style="fill:#2c62ac"/></g></svg>