<svg version="1.1" id="Calque_1" xmlns="http://www.w3.org/2000/svg" x="0" y="0" viewBox="0 0 200 200" style="enable-background:new 0 0 200 200" xml:space="preserve"><style>.st1{fill:#fff}.st2{fill:#86d0f5}.st3{fill:#0d58a1}.st4{fill:#3e8bcb}</style><path id="XMLID_24_" d="m166.1 92.8-12.7 13.7c-5.8 6.3-15.7 6.7-22 .9l-.1-.1c-6.3-5.8-6.7-15.7-.9-22l12.7-13.7c5.8-6.3 5.4-16.2-.9-22l-.1-.1c-6.3-5.8-16.2-5.4-22 .9l-1.1 1.2c-5.8 6.3-15.7 6.7-22 .9l-.1-.1c-6.3-5.8-6.7-15.7-.9-22l1.1-1.2c5.8-6.3 5.4-16.2-.9-22-6.3-5.8-16.2-5.4-22 .9L10.9 76.5c-5.8 6.3-5.4 16.2.9 22 6.3 5.8 16.2 5.4 22-.9l12.7-13.7c5.8-6.3 15.7-6.7 22-.9l.1.1c6.3 5.8 6.7 15.7.9 22l-12.7 13.7c-5.8 6.3-5.4 16.2.9 22l.1.1c6.3 5.8 16.2 5.4 22-.9l5.9-6.4c5.8-6.3 15.7-6.7 22-.9l.1.1c6.3 5.8 6.7 15.7.9 22l-5.9 6.4c-5.8 6.3-5.4 16.2.9 22l.1.1c6.3 5.8 16.2 5.4 22-.9l63.2-68.5c5.8-6.3 5.4-16.2-.9-22l-.1-.1c-6.2-5.7-16.1-5.3-21.9 1z" style="opacity:.15;fill:#3e7388"/><g id="XMLID_5_"><path id="XMLID_38_" class="st1" d="M73.8 49.4c-5.5 0-9.9 4.5-9.9 9.9v89.3c0 5.5 4.5 9.9 9.9 9.9h43.1c5.5 0 9.9-4.5 9.9-9.9V59.3c0-5.5-4.5-9.9-9.9-9.9H73.8z"/><path id="XMLID_37_" class="st2" d="M129.4 65.1v-5.8c0-6.9-5.6-12.5-12.5-12.5H73.8c-6.9 0-12.5 5.6-12.5 12.5v5.8h68.1z"/><path id="XMLID_36_" class="st2" d="M61.3 142.4v6.3c0 6.9 5.6 12.5 12.5 12.5h43.1c6.9 0 12.5-5.6 12.5-12.5v-6.3H61.3z"/><path id="XMLID_33_" class="st3" d="M116.9 163.8H73.8c-8.3 0-15.1-6.8-15.1-15.1V59.3c0-8.3 6.8-15.1 15.1-15.1h43.1c8.3 0 15.1 6.8 15.1 15.1v89.3c0 8.4-6.7 15.2-15.1 15.2zM73.8 49.4c-5.5 0-9.9 4.5-9.9 9.9v89.3c0 5.5 4.5 9.9 9.9 9.9h43.1c5.5 0 9.9-4.5 9.9-9.9V59.3c0-5.5-4.5-9.9-9.9-9.9H73.8z"/><path id="XMLID_30_" class="st3" d="M132 67.7H58.7v-8.4c0-8.3 6.8-15.1 15.1-15.1h43.1c8.3 0 15.1 6.8 15.1 15.1v8.4zm-68.1-5.2h62.9v-3.2c0-5.5-4.5-9.9-9.9-9.9H73.8c-5.5 0-9.9 4.5-9.9 9.9v3.2z"/><path id="XMLID_27_" class="st3" d="M116.9 163.8H73.8c-8.3 0-15.1-6.8-15.1-15.1v-8.9H132v8.9c0 8.3-6.7 15.1-15.1 15.1zm-53-18.8v3.7c0 5.5 4.5 9.9 9.9 9.9h43.1c5.5 0 9.9-4.5 9.9-9.9V145H63.9z"/><circle id="XMLID_26_" class="st4" cx="95.4" cy="151.6" r="5"/><path id="XMLID_25_" class="st4" d="M72.6 74.3h9.7v7h-9.7z"/><path id="XMLID_23_" class="st4" d="M72.6 86.6h45.6v18.9H72.6z"/><path id="XMLID_22_" class="st4" d="M72.6 74.3h9.7v7h-9.7z"/><path id="XMLID_21_" class="st4" d="M72.6 112h45.6v13H72.6z"/><circle id="XMLID_20_" class="st1" cx="136.6" cy="56.9" r="20.6"/><circle id="XMLID_19_" class="st4" cx="136.6" cy="56.9" r="15.8"/><path id="XMLID_18_" class="st1" d="m134.7 63.7-1.8 1.7-7.1-7.1 4-3.9 3.2 3.1 10.4-10.4 4 3.9z"/></g></svg>