<svg version="1.1" id="Calque_1" xmlns="http://www.w3.org/2000/svg" x="0" y="0" viewBox="-94 186 422 422" style="enable-background:new -94 186 422 422" xml:space="preserve"><style>.st0{fill:#0023ff}.st2{fill:#d4e1f4}</style><path class="st0" d="M165.7 344.5c-3.9 0-7-3.1-7-7v-76.3c0-33.8-27.4-61.2-61.2-61.2s-61.2 27.4-61.2 61.2v76.3c0 3.9-3.1 7-7 7s-7-3.1-7-7v-76.3c0-41.5 33.7-75.2 75.2-75.2s75.2 33.7 75.2 75.2v76.3c0 3.9-3.1 7-7 7z"/><path d="M225.8 308.8c-2.1-13.4-13.7-23.3-27.3-23.3H-3.4c-13.6-.1-25.2 9.8-27.3 23.3l-38.5 217.4c-.1.4-.1.8-.1 1.2 0 26.6 21.6 48.2 48.2 48.2h216.2c3.9 0 7-3.1 7-7s-3.1-7-7-7H-21.1c-18.7 0-33.9-15-34.3-33.7L-17 311.1v-.1c1-6.6 6.7-11.5 13.5-11.5h201.9c6.7 0 12.4 4.9 13.5 11.5v.1l20.8 117.4c.7 3.8 4.3 6.3 8.1 5.6 3.8-.7 6.3-4.3 5.7-8.1l-20.7-117.2z" style="fill:#6978a8"/><path class="st0" d="M226.4 608c-1.9 0-3.8-.8-5.1-2.2l-49.6-52.9c-7.6-8-13.6-17.4-17.5-27.7-3.7-10-5.3-20.6-4.6-31.2 1.3-19.3 9.5-37.6 23.2-51.3 14.2-14.2 33.5-22.2 53.6-22.2s39.4 8 53.6 22.2c13.7 13.7 21.9 32 23.2 51.3.7 10.6-.9 21.3-4.6 31.2-3.9 10.3-9.8 19.8-17.5 27.7l-49.6 52.9c-1.3 1.4-3.2 2.2-5.1 2.2zm0-173.6c-16.4-.1-32.1 6.5-43.7 18.1-11.3 11.4-18.1 26.4-19.1 42.4-.5 8.7.7 17.4 3.8 25.5 3.2 8.6 8.2 16.4 14.5 23l44.5 47.4 44.5-47.4c6.3-6.6 11.3-14.4 14.5-23 3-8.1 4.3-16.8 3.8-25.5-1-16-7.8-31-19.1-42.4-11.6-11.6-27.3-18.2-43.7-18.1zm0 96.7c-20.2 0-36.7-16.8-36.7-37.5s16.5-37.5 36.7-37.5 36.7 16.8 36.7 37.5-16.5 37.5-36.7 37.5zm0-61c-12.5 0-22.7 10.5-22.7 23.5s10.2 23.5 22.7 23.5 22.7-10.6 22.7-23.5c0-13-10.2-23.5-22.7-23.5z"/><path class="st2" d="M156.9 531.7H8.9c-18.7 0-33.9-15-34.3-33.7L9.8 299.5H-3.4c-6.7 0-12.5 4.9-13.5 11.5v.1L-55.3 528c.3 18.7 15.6 33.6 34.3 33.7h200.9l-8.2-8.7c-6-6.4-11-13.5-14.8-21.3zM202.8 412.7c-5.1 5.1-9.5 10.9-13 17.1 11.2-6.2 23.8-9.4 36.6-9.4 1.7 0 3.3.1 5 .2l-4.3-24.3c-9.1 3.8-17.4 9.4-24.3 16.4z"/></svg>