<svg version="1.1" id="Calque_1" xmlns="http://www.w3.org/2000/svg" x="0" y="0" viewBox="-94 186 422 422" style="enable-background:new -94 186 422 422" xml:space="preserve"><style>.st1{fill:#0023ff}</style><path d="M147.2 544.8c-98.2 0-178-79.8-178-178 0-39.8 13.3-78.5 38-109.8-43 33.7-68.2 85.3-68.2 140 0 98.2 79.8 178 178 178 54.7 0 106.3-25.1 140-68.2-31.3 24.7-70 38.1-109.8 38z" style="fill:#d4e1f4"/><path class="st1" d="M277.4 242.5c-2.7-2.8-7.1-2.9-10-.2l-52.8 50.4-27.9-27.9c-2.7-2.7-7.2-2.7-10 0-2.7 2.7-2.7 7.2 0 10l32.8 32.8c2.7 2.7 7.1 2.8 9.8.1l57.8-55.2c2.9-2.7 3-7.2.3-10zM117 328.9c16.6 0 30.1 13.5 30.1 30.1 0 3.9 3.2 7 7 7 3.9 0 7-3.2 7-7 0-21.7-15.8-40.1-37.1-43.6v-13.9c0-3.9-3.2-7-7-7s-7 3.2-7 7v13.9c-22.7 3.7-38.8 24.2-37 47.1 1.8 22.9 21 40.6 44 40.6 16.6 0 30 13.4 30.1 29.9.1 16.6-13.2 30.1-29.7 30.3h-.6c-16.5-.2-29.7-13.6-29.8-30.1 0-3.9-3.2-7-7-7s-7 3.2-7 7c0 21.7 15.7 40.1 37.1 43.6v15.6c0 3.9 3.2 7 7 7s7-3.2 7-7v-15.6c22.7-3.7 38.8-24.2 37-47.1-1.8-23-21-40.6-44-40.6-10.8.1-20.8-5.7-26.2-15-5.4-9.3-5.4-20.9 0-30.2 5.3-9.3 15.3-15 26.1-15z"/><path d="M272.1 324.6c-3.6 1.5-5.3 5.6-3.8 9.2 8.4 20 12.7 41.5 12.6 63.1 0 90.4-73.5 163.9-163.9 163.9S-46.9 487.4-46.9 397 26.6 233.1 117 233.1c18.4 0 36.6 3 54 9.1 2.4.8 5 .3 6.9-1.3 1.9-1.6 2.8-4.2 2.3-6.7s-2.2-4.5-4.6-5.3c-18.8-6.6-38.6-9.9-58.6-9.9-98.2 0-178 79.8-178 178s79.8 178 178 178 178-79.8 178-178c0-23.5-4.6-46.9-13.7-68.6-1.5-3.6-5.6-5.3-9.2-3.8z" style="fill:#6978a8"/></svg>