<svg version="1.1" id="Calque_1" xmlns="http://www.w3.org/2000/svg" x="0" y="0" viewBox="-94 186 422 422" style="enable-background:new -94 186 422 422" xml:space="preserve"><style>.st2{fill:#6978a8}</style><path d="M58.7 449.3c-16.1-17.1-27.9-35.8-35.1-55.6-7.4-19.8-10.5-40.9-9.1-62C17 293 33.5 256.5 60.8 229c8-8 16.8-15.1 26.4-21.2-29 5.8-55.6 20.2-76.4 41.2-27.3 27.5-43.8 64-46.3 102.7-1.3 21.1 1.8 42.2 9.1 62 7.2 19.8 19 38.5 35.1 55.6l108.4 115.5 34.4-36.6-92.8-98.9z" style="fill:#d4e1f4"/><path d="M117.1 468.2c-63.9 0-115.9-53.3-115.9-118.8s52-118.8 115.9-118.8c63.9 0 115.9 53.3 115.9 118.8s-52 118.8-115.9 118.8zm0-223.6c-56.2 0-101.9 47-101.9 104.8s45.7 104.8 101.9 104.8S219 407.2 219 349.4s-45.7-104.8-101.9-104.8z" style="fill:#0023ff"/><path class="st2" d="M-1.5 478.9 112 599.8c1.3 1.4 3.2 2.2 5.1 2.2s3.8-.8 5.1-2.2l113.5-120.9c17.4-18.5 30.2-38.8 38-60.4 8-21.6 11.4-44.7 9.9-67.7-2.8-42.1-20.7-81.7-50.4-111.6C202.4 208.3 160.6 191 117 191 73.4 191 31.6 208.3.8 239.2c-29.7 29.9-47.6 69.5-50.4 111.6-1.5 23 1.9 46.1 9.9 67.7s20.8 41.9 38.2 60.4zm-34-127.1c2.5-38.7 19-75.2 46.3-102.7C39 220.9 77.2 205 117.1 205c39.9 0 78.1 15.9 106.3 44.1 27.3 27.5 43.8 64 46.3 102.7 1.3 21.1-1.8 42.2-9.1 62-7.2 19.8-19 38.5-35.1 55.6L117.1 584.8 8.7 469.3c-16.1-17.1-27.9-35.8-35.1-55.6-7.3-19.7-10.4-40.9-9.1-61.9z"/><path class="st2" d="M98.3 384.8c2.7 2.7 7 2.7 9.8.1l63.8-60.9c2.8-2.7 2.9-7.1.2-9.9-2.7-2.8-7.1-2.9-9.9-.2L103.4 370l-31.3-31.3c-2.7-2.7-7.2-2.7-9.9 0s-2.7 7.2 0 9.9l36.1 36.2z"/></svg>