<svg xmlns="http://www.w3.org/2000/svg" viewBox="-94 186 422 422" style="enable-background:new -94 186 422 422" xml:space="preserve"><path d="M92.3 445.6c-2.3 0-4.5-1-6-2.8L44.6 394c-2.8-3.3-2.4-8.3.9-11.1 3.3-2.8 8.3-2.4 11.1.9l36.7 43 91.2-74.2c3.4-2.8 8.4-2.2 11.1 1.1 2.8 3.4 2.2 8.4-1.1 11.1l-97.1 79c-1.5 1.1-3.3 1.8-5.1 1.8z" style="fill:#0023ff"/><path d="m89.7 598 21.4 9.3c2 .9 4.3.9 6.3 0l24.1-10.4c84.7-35.6 139.8-118.5 139.8-210.3V278.4c0-2.9-1.6-5.6-4.2-7l-158.6-84.5c-2.4-1.3-5.2-1.2-7.5 0l-154.2 84.5c-2.5 1.4-4.1 4-4.1 6.9v110.4c.1 90.9 53.9 173 137 209.3zM-31.5 283.1l146.4-80.2 150.7 80.3v103.5c0 85.5-51.3 162.7-130.2 195.8h-.1l-21 9.1-18.3-8C18.6 549.7-31.4 473.3-31.5 388.8V283.1z" style="fill:#6978a8"/><path d="m169.2 537.3-21.1 9.1-18.3-8C52.5 504.6 2.4 428.2 2.3 343.7v-79.1l-33.8 18.5v105.7c.1 84.5 50.1 160.9 127.5 194.7l18.2 8 21-9.1h.1c43.7-18.4 80-50.9 103.2-92.2-19.7 20.1-43.3 36.1-69.3 47.1z" style="fill:#d4e1f4"/></svg>