<svg version="1.1" id="Capa_1" xmlns="http://www.w3.org/2000/svg" x="0" y="0" viewBox="-49 141 512 512" style="enable-background:new -49 141 512 512" xml:space="preserve"><style>.st3{fill:#fcfcfc}</style><path d="M428.7 525V269L207 141-14.7 269v256L207 653l221.7-128zM75.8 321.3 207 245.6l131.2 75.7v151.4L207 548.4 75.8 472.7V321.3zM207 469.6l-62.9-36.3v-72.6l62.9-36.3 62.9 36.3v72.6L207 469.6z" style="fill:gold"/><path style="fill:none" d="M-49 141h512v512H-49z"/><g style="opacity:.3"><path class="st3" d="M144.1 360.7v66.5l119.4-70.3-56.5-32.5z"/><path class="st3" d="M75.8 467.3v-146L207 245.6l124.1 71.6 89.7-52.8L207 141-14.7 269v251.6z"/></g></svg>