<svg version="1.1" id="Capa_1" xmlns="http://www.w3.org/2000/svg" x="0" y="0" viewBox="0 0 250 250" style="enable-background:new 0 0 250 250" xml:space="preserve"><style>.st0,.st1{fill:#fff;stroke:#cecece;stroke-width:4;stroke-miterlimit:10}.st1{fill:none}</style><path id="XMLID_4_" class="st0" d="M228.5 217.7h-207c-.6 0-1.2-.6-1.2-1.4V88.9c0-.7.5-1.4 1.2-1.4h207c.6 0 1.2.6 1.2 1.4v127.5c0 .7-.6 1.3-1.2 1.3z"/><path id="XMLID_1_" class="st0" d="M228.5 77.1h-207c-.6 0-1.2-.5-1.2-1.2V33.5c0-.6.5-1.2 1.2-1.2h207c.6 0 1.2.5 1.2 1.2v42.4c0 .7-.6 1.2-1.2 1.2z"/><path class="st1" d="M45.6 114.3h98.2M45.6 140.3H121M45.6 165h135.1M45.6 189.7h43.7"/></svg>