<svg version="1.1" id="Capa_1" xmlns="http://www.w3.org/2000/svg" x="0" y="0" viewBox="262 0 250 250" style="enable-background:new 262 0 250 250" xml:space="preserve"><style>.st2{fill:#fff;stroke:#e5e5e5;stroke-width:4;stroke-linecap:round;stroke-linejoin:round;stroke-miterlimit:10}</style><path id="XMLID_1_" d="M476.2 62.3H297.8c-.6 0-1.2-.5-1.2-1.2V27.8c0-.6.5-1.2 1.2-1.2h178.4c.6 0 1.2.5 1.2 1.2v33.3c0 .7-.5 1.2-1.2 1.2z" style="fill:#fff;stroke:#cecece;stroke-width:4;stroke-miterlimit:10"/><path style="fill:#fff;stroke:#cecece;stroke-width:4;stroke-linecap:round;stroke-linejoin:round;stroke-miterlimit:10" d="M296.6 75.8h180.7v147.5H296.6z"/><path class="st2" d="M317.2 99.7h14.6M342.2 99.7h14.6M367.2 99.7h14.6M392.2 99.7h14.6M417.2 99.7h14.6M442.2 99.7h14.6M317.2 125.1h14.6M342.2 125.1h14.6M367.2 125.1h14.6M392.2 125.1h14.6M417.2 125.1h14.6M442.2 125.1h14.6M317.2 150.5h14.6M342.2 150.5h14.6M392.2 150.5h14.6M417.2 150.5h14.6M442.2 150.5h14.6M317.2 175.9h14.6M342.2 175.9h14.6M367.2 175.9h14.6M392.2 175.9h14.6M417.2 175.9h14.6M442.2 175.9h14.6M317.2 201.3h14.6M342.2 201.3h14.6M367.2 201.3h14.6M392.2 201.3h14.6M417.2 201.3h14.6M442.2 201.3h14.6"/><circle cx="374.9" cy="150.8" r="8.5" style="fill:#e5e5e5"/><circle class="st2" cx="315.1" cy="44.5" r="7.7"/></svg>