<svg version="1.1" id="Capa_1" xmlns="http://www.w3.org/2000/svg" x="0" y="0" viewBox="262 0 250 250" style="enable-background:new 262 0 250 250" xml:space="preserve"><style>.st0{fill:#fff;stroke:#cecece;stroke-width:4;stroke-miterlimit:10}</style><path id="XMLID_4_" class="st0" d="M490.5 69.3h-207c-.6 0-1.2-.5-1.2-1.2v-26c0-.6.5-1.2 1.2-1.2h207c.6 0 1.2.5 1.2 1.2v26.1c0 .6-.6 1.1-1.2 1.1z"/><path id="XMLID_1_" class="st0" d="M490.5 118.1h-207c-.6 0-1.2-.5-1.2-1.2v-26c0-.6.5-1.2 1.2-1.2h207c.6 0 1.2.5 1.2 1.2V117c0 .6-.6 1.1-1.2 1.1z"/><path id="XMLID_2_" class="st0" d="M490.5 167h-207c-.6 0-1.2-.5-1.2-1.2v-26.1c0-.6.5-1.2 1.2-1.2h207c.6 0 1.2.5 1.2 1.2v26.1c0 .6-.6 1.2-1.2 1.2z"/><path id="XMLID_7_" style="fill:#cecece" d="M421.5 182.8h70.2V212h-70.2z"/></svg>