<svg version="1.1" id="Capa_1" xmlns="http://www.w3.org/2000/svg" x="0" y="0" viewBox="262 0 250 250" style="enable-background:new 262 0 250 250" xml:space="preserve"><style>.st0{fill:#fff;stroke:#cecece;stroke-width:4;stroke-miterlimit:10}</style><path id="XMLID_4_" class="st0" d="M490.5 207h-207c-.6 0-1.2-.5-1.2-1.2V99.3c0-.6.5-1.2 1.2-1.2h207c.6 0 1.2.5 1.2 1.2v106.6c0 .6-.6 1.1-1.2 1.1z"/><path id="XMLID_1_" class="st0" d="M490.5 87.8h-207c-.6 0-1.2-.5-1.2-1.2V44.2c0-.6.5-1.2 1.2-1.2h207c.6 0 1.2.5 1.2 1.2v42.4c0 .7-.6 1.2-1.2 1.2z"/><path style="fill:#fff;stroke:#cecece;stroke-width:4;stroke-linecap:round;stroke-linejoin:round;stroke-miterlimit:10" d="m456.9 64.1 7.5 7.9 8.7-7.9"/><circle class="st0" cx="329.5" cy="134.5" r="10.6"/><path class="st0" d="M351.9 134.5h98.2"/><circle class="st0" cx="329.5" cy="169.7" r="10.6"/><path class="st0" d="M351.9 169.7h98.2"/></svg>