<svg version="1.1" id="Capa_1" xmlns="http://www.w3.org/2000/svg" x="0" y="0" viewBox="0 0 250 250" style="enable-background:new 0 0 250 250" xml:space="preserve"><style>.st1{fill:#edeeef}.st2{fill:none;stroke:#cecece;stroke-width:4;stroke-miterlimit:10}</style><path d="M90 64.7V36.4c0-.7-.6-1.3-1.3-1.3H23.3c-.7 0-1.3.6-1.3 1.3v177.2c0 .7.6 1.3 1.3 1.3H230c.7 0 1.3-.6 1.3-1.3V67.4c0-.7-.6-1.3-1.3-1.3H91.3c-.7-.1-1.3-.6-1.3-1.4z" style="fill:#fff;stroke:#cecece;stroke-width:4;stroke-miterlimit:10"/><path class="st1" d="M150.3 60.5H98.8c-.6 0-1-.4-1-1V36c0-.6.4-1 1-1h51.5c.6 0 1 .4 1 1v23.5c0 .6-.5 1-1 1zM210 60.5h-51.5c-.6 0-1-.4-1-1V36c0-.6.4-1 1-1H210c.6 0 1 .4 1 1v23.5c0 .6-.4 1-1 1z"/><path class="st2" d="M54.6 111h98.2M54.6 137H130M54.6 161.7h135.1"/></svg>